<!DOCTYPE svg PUBLIC "-//W3C//DTD SVG 1.1//EN" "http://www.w3.org/Graphics/SVG/1.1/DTD/svg11.dtd">
<!-- Uploaded to: SVG Repo, www.svgrepo.com, Transformed by: SVG Repo Mixer Tools -->
<svg height="800px" width="800px" version="1.1" id="Capa_1" xmlns="http://www.w3.org/2000/svg" xmlns:xlink="http://www.w3.org/1999/xlink" viewBox="0 0 270.17 270.17" xml:space="preserve" fill="#000000">
<g id="SVGRepo_bgCarrier" stroke-width="0"/>
<g id="SVGRepo_tracerCarrier" stroke-linecap="round" stroke-linejoin="round"/>
<g id="SVGRepo_iconCarrier"> <g> <g> <path style="fill:#ffffff;" d="M236.973,168.41c-3.682-23.578-14.561-43.037-32.621-58.331 c-13.75-11.874-29.674-19.45-47.77-22.729V34.708c-17.914,8.739-32.006,9.938-42.482,0V87.19 c-18.425,3.163-34.611,10.701-48.553,22.606c-18.069,15.497-28.851,35.036-32.349,58.614c-0.742,3.875-1.114,7.561-1.114,11.07 c0,15.484,5.067,29.025,15.214,40.644c10.134,11.611,24.422,20.101,42.864,25.431v4.164c0,5.155,1.747,9.491,5.249,12.987 c3.498,3.505,7.831,5.444,12.995,5.81c5.344,0.376,9.303-0.551,11.887-2.762c4.052,2.941,8.57,4.416,13.551,4.416 c4.607,0,8.852-1.375,12.717-4.141c2.583,2.021,6.359,2.862,11.341,2.486c5.157-0.55,9.493-2.534,12.995-5.94 c3.5-3.427,5.248-7.701,5.248-12.856v-3.038c19.905-5.169,35.301-13.827,46.182-26.008c10.506-11.605,15.76-25.335,15.76-41.193 C238.083,175.971,237.712,172.285,236.973,168.41z M111.169,195.098c-5.532,6.368-12.173,9.537-19.909,9.537 c-7.741,0-14.378-3.169-19.909-9.537c-5.53-6.359-8.297-14.061-8.297-23.093c0-9.026,2.767-16.726,8.297-23.071 c5.53-6.357,12.168-9.538,19.909-9.538c7.735,0,14.376,3.181,19.909,9.538c5.532,6.346,8.302,14.045,8.302,23.071 C119.47,181.037,116.701,188.738,111.169,195.098z M135.22,231.735c-4.61,0-8.02-1.187-10.228-3.55 c-1.293-1.473-1.934-3.287-1.934-5.48c0-3.457,1.333-6.917,4.008-10.392v-0.001c2.67-3.451,5.293-5.186,7.879-5.186 c2.581,0,5.016,1.911,7.325,5.754c2.304,3.824,3.465,7.463,3.465,10.934C145.735,229.104,142.227,231.735,135.22,231.735z M196.192,195.098c-5.439,6.368-12.119,9.537-20.051,9.537c-7.737,0-14.326-3.169-19.764-9.537 c-5.445-6.359-8.164-14.061-8.164-23.093c0-9.026,2.719-16.726,8.164-23.071c5.438-6.357,12.026-9.538,19.764-9.538 c7.932,0,14.611,3.181,20.051,9.538c5.433,6.346,8.158,14.045,8.158,23.071C204.352,181.037,201.626,188.738,196.192,195.098z"/> <path style="fill:#ffffff;" d="M130.876,32.662c17.493,5.521,14.777-20.486,6.426-32.662 C137.167,14.079,119.102,26.4,130.876,32.662z"/> </g> </g> </g>
</svg>