<svg xmlns="http://www.w3.org/2000/svg" xmlns:xlink="http://www.w3.org/1999/xlink" width="3000" zoomAndPan="magnify" viewBox="0 0 2250 2250.000011" height="3000" preserveAspectRatio="xMidYMid meet" version="1.0"><defs><clipPath id="cf67482972"><path d="M 358.105469 136.230469 L 1981.132812 136.230469 L 1981.132812 2113 L 358.105469 2113 Z M 358.105469 136.230469 " clip-rule="nonzero"/></clipPath></defs><g clip-path="url(#cf67482972)"><path fill="#0f4f30" d="M 1981.160156 1124.582031 C 1981.160156 1257.957031 1954.996094 1387.40625 1903.4375 1509.300781 C 1853.671875 1627.015625 1782.394531 1732.691406 1691.65625 1823.429688 C 1600.917969 1914.167969 1495.242188 1985.402344 1377.527344 2035.210938 C 1255.589844 2086.769531 1126.183594 2112.933594 992.808594 2112.933594 L 358.363281 2112.933594 L 358.363281 224.621094 L 1109.496094 973.789062 L 1403.351562 685.867188 C 1449.359375 732.519531 1499.980469 794.617188 1541.25 871.914062 L 1108.214844 1296.539062 L 587.8125 777.675781 L 587.8125 1883.4375 L 992.851562 1883.4375 C 1411.332031 1883.4375 1751.75 1542.976562 1751.75 1124.539062 C 1751.75 706.054688 1411.289062 365.636719 992.851562 365.636719 L 776.546875 365.636719 L 546.625 136.230469 L 992.851562 136.230469 C 1126.226562 136.230469 1255.675781 162.390625 1377.570312 213.949219 C 1495.285156 263.714844 1600.960938 334.992188 1691.699219 425.730469 C 1782.4375 516.46875 1853.671875 622.144531 1903.480469 739.859375 C 1955.039062 861.753906 1981.160156 991.203125 1981.160156 1124.582031 Z M 1981.160156 1124.582031 " fill-opacity="1" fill-rule="nonzero"/></g></svg>