<!DOCTYPE svg PUBLIC "-//W3C//DTD SVG 1.1//EN" "http://www.w3.org/Graphics/SVG/1.1/DTD/svg11.dtd">
+
<!-- Uploaded to: SVG Repo, www.svgrepo.com, Transformed by: SVG Repo Mixer Tools -->
<svg fill="#ffffff" height="800px" width="800px" version="1.1" id="Layer_1" xmlns="http://www.w3.org/2000/svg" xmlns:xlink="http://www.w3.org/1999/xlink" viewBox="0 0 512.008 512.008" xml:space="preserve" stroke="#ffffff">
+
<g id="SVGRepo_bgCarrier" stroke-width="0"/>
+
<g id="SVGRepo_tracerCarrier" stroke-linecap="round" stroke-linejoin="round"/>
+
<g id="SVGRepo_iconCarrier"> <g> <g> <path d="M507.733,136.537c-7.061-9.429-20.459-11.371-29.867-4.267l-55.083,41.323c-14.89-76.821-72.404-130.922-145.45-130.922 H192c-85.12,0-149.333,73.365-149.333,170.667v3.008c-0.299,0.085-0.683,0.149-0.96,0.213l-0.597-1.643 C17.301,223.812,0,248.345,0,273.263c0,21.589,12.139,41.109,31.211,51.605c26.112,85.589,108.224,144.469,203.456,144.469 s177.323-58.88,203.456-144.469c19.072-10.496,31.211-30.016,31.211-51.605c0-22.571-14.251-44.693-34.624-55.296l68.757-51.563 C512.896,159.343,514.816,145.967,507.733,136.537z M293.525,377.625c-15.104,17.6-37.077,27.712-60.245,27.712 c-21.397,0-41.451-8.384-56.448-23.595c-8.277-8.384-8.192-21.888,0.213-30.165c8.363-8.277,21.888-8.192,30.165,0.213 c14.421,14.613,40.448,13.717,53.931-1.963c7.701-8.96,21.184-9.92,30.08-2.283C300.16,355.204,301.184,368.687,293.525,377.625z M170.667,298.671c0-11.776,9.557-21.333,21.333-21.333s21.333,9.557,21.333,21.333s-9.557,21.333-21.333,21.333 S170.667,310.447,170.667,298.671z M277.333,320.004c-11.776,0-21.333-9.557-21.333-21.333s9.557-21.333,21.333-21.333 s21.333,9.557,21.333,21.333S289.109,320.004,277.333,320.004z M85.376,212.313C85.803,138.671,130.475,85.337,192,85.337h85.333 c61.76,0,106.581,53.739,106.667,127.808C220.373,211.396,132.565,210.585,85.376,212.313z"/> </g> </g> <g> <g> <path d="M298.667,128.004h-128c-11.797,0-21.333,9.557-21.333,21.333s9.536,21.333,21.333,21.333h128 c11.797,0,21.333-9.557,21.333-21.333S310.464,128.004,298.667,128.004z"/> </g> </g> </g>
+
</svg>

