<svg xmlns="http://www.w3.org/2000/svg" xmlns:xlink="http://www.w3.org/1999/xlink" width="1500" zoomAndPan="magnify" viewBox="0 0 1125 1124.99995" height="1500" preserveAspectRatio="xMidYMid meet" version="1.0"><defs><clipPath id="86758d6611"><path d="M 53.753906 284 L 1071.503906 284 L 1071.503906 839 L 53.753906 839 Z M 53.753906 284 " clip-rule="nonzero"/></clipPath></defs><g clip-path="url(#86758d6611)"><path fill="currentColor" d="M 1071.042969 671.136719 L 1063.65625 686.855469 C 1008.195312 789.238281 922.558594 839.824219 806.699219 838.566406 C 730.296875 837.949219 664.367188 811.144531 608.90625 758.132812 C 589.339844 739.433594 573.171875 719.292969 560.4375 697.757812 C 538.53125 660.726562 526.722656 619.480469 524.992188 574.0625 C 525.261719 568.609375 525.34375 563.074219 525.21875 557.480469 C 525.136719 555.15625 525.035156 552.851562 524.890625 550.546875 C 521.660156 497.800781 501.890625 452.421875 465.5625 414.445312 C 427.648438 374.828125 381.859375 355.015625 328.207031 355.015625 C 272.089844 354.398438 224.300781 374.066406 184.84375 413.996094 C 145.367188 453.921875 125.332031 502.0625 124.714844 558.40625 C 123.480469 614.132812 141.667969 662.886719 179.269531 704.667969 C 216.894531 746.46875 262.832031 768.296875 317.097656 770.148438 C 375.050781 773.234375 424.523438 753.113281 465.542969 709.769531 C 486.566406 687.574219 502.015625 663.421875 511.929688 637.316406 C 514.8125 663.175781 523.945312 687.921875 538.570312 709.441406 L 545.957031 720.304688 C 536.265625 733.941406 525.160156 747.046875 512.609375 759.59375 C 457.480469 814.789062 392.039062 841.160156 316.277344 838.691406 C 242.960938 836.839844 180.894531 809.089844 130.085938 755.4375 C 79.273438 701.828125 53.867188 637.996094 53.867188 563.980469 C 53.867188 486.898438 81.269531 420.761719 136.089844 365.570312 C 190.933594 310.398438 256.207031 284.023438 331.992188 286.492188 C 405.289062 288.960938 467.515625 317.164062 518.636719 371.125 C 535.199219 388.609375 549.082031 407.144531 560.292969 426.75 C 583.539062 467.398438 595.226562 512.574219 595.328125 562.253906 L 595.65625 562.210938 C 595.78125 619.398438 616.742188 668.484375 658.542969 709.398438 C 700.46875 750.460938 750.105469 770.660156 807.460938 770.042969 C 889.457031 768.808594 950.800781 735.835938 991.511719 671.136719 Z M 663.171875 412.617188 C 706.332031 371.882812 755.042969 352.136719 809.292969 353.351562 C 890.671875 355.222656 951.109375 390.277344 990.566406 458.550781 L 1070.097656 458.550781 L 1059.933594 435.449219 C 1040.226562 392.3125 1007.558594 356.578125 961.953125 328.230469 C 913.898438 298.671875 862.140625 284.1875 806.699219 284.804688 C 729.042969 286.039062 662.347656 313.933594 606.582031 368.492188 C 593.804688 380.976562 582.53125 394.039062 572.761719 407.679688 C 588.476562 425.988281 599.238281 448.019531 604.050781 471.675781 L 608.164062 491.917969 C 619.171875 462.976562 637.519531 436.539062 663.171875 412.617188 Z M 663.171875 412.617188 " fill-opacity="1" fill-rule="nonzero"/></g></svg>