<svg xmlns="http://www.w3.org/2000/svg" xmlns:xlink="http://www.w3.org/1999/xlink" width="1500" zoomAndPan="magnify" viewBox="0 0 1125 1124.99995" height="1500" preserveAspectRatio="xMidYMid meet" version="1.0"><defs><clipPath id="3fdaa3adb5"><path d="M 63.890625 64.511719 L 1061.386719 64.511719 L 1061.386719 1060.511719 L 63.890625 1060.511719 Z M 63.890625 64.511719 " clip-rule="nonzero"/></clipPath></defs><g clip-path="url(#3fdaa3adb5)"><path fill="currentColor" d="M 563.15625 562.496094 L 563.15625 904.789062 C 562.699219 904.789062 562.25 904.804688 561.796875 904.804688 C 373.046875 904.804688 219.484375 751.246094 219.484375 562.496094 C 219.484375 373.746094 373.046875 220.183594 561.796875 220.183594 C 750.546875 220.183594 904.105469 373.746094 904.105469 562.496094 C 904.105469 623.824219 887.871094 681.421875 859.503906 731.253906 L 972.417969 844.171875 C 991.320312 816.6875 1007.421875 787.34375 1020.539062 756.328125 C 1046.527344 694.890625 1059.703125 629.675781 1059.703125 562.496094 C 1059.703125 495.3125 1046.527344 430.097656 1020.539062 368.664062 C 995.460938 309.363281 959.574219 256.121094 913.871094 210.417969 C 868.167969 164.71875 814.925781 128.828125 755.628906 103.75 C 694.191406 77.761719 628.976562 64.585938 561.796875 64.585938 C 494.613281 64.585938 429.398438 77.761719 367.964844 103.75 C 308.664062 128.828125 255.421875 164.71875 209.71875 210.417969 C 164.023438 256.121094 128.128906 309.363281 103.050781 368.664062 C 77.0625 430.097656 63.890625 495.3125 63.890625 562.496094 C 63.890625 629.675781 77.0625 694.890625 103.050781 756.328125 C 128.128906 815.625 164.023438 868.867188 209.71875 914.570312 C 255.421875 960.269531 308.664062 996.160156 367.964844 1021.238281 C 429.398438 1047.226562 494.613281 1060.402344 561.796875 1060.402344 C 615.691406 1060.402344 668.320312 1051.898438 718.75 1035.128906 L 718.75 938.136719 L 841.015625 1060.402344 L 1061.0625 1060.402344 L 563.15625 562.496094 " fill-opacity="1" fill-rule="nonzero"/></g></svg>