<svg xmlns="http://www.w3.org/2000/svg" xmlns:xlink="http://www.w3.org/1999/xlink" width="1500" zoomAndPan="magnify" viewBox="0 0 1125 1124.99995" height="1500" preserveAspectRatio="xMidYMid meet" version="1.0"><defs><clipPath id="8a05ba75ed"><path d="M 702 79.894531 L 836 79.894531 L 836 262 L 702 262 Z M 702 79.894531 " clip-rule="nonzero"/></clipPath><clipPath id="848994cfd8"><path d="M 96.179688 109 L 976.679688 109 L 976.679688 1004 L 96.179688 1004 Z M 96.179688 109 " clip-rule="nonzero"/></clipPath></defs><path fill="#ffffff" d="M 916.863281 403.828125 C 922.636719 399.835938 925.355469 393.949219 931.828125 389.980469 C 921.675781 377.355469 907.734375 370.226562 892.941406 364.339844 C 865.558594 353.4375 843.960938 350.445312 816.789062 351.816406 C 813.773438 351.96875 803.328125 353.441406 803.222656 353.398438 C 807.246094 355.203125 811.300781 357.792969 815.488281 359.054688 C 817.710938 357.683594 820.128906 356.011719 822.625 355.253906 C 826.355469 354.117188 833.121094 354.886719 836.890625 355.761719 L 841.3125 357.230469 L 842.972656 369.734375 C 844.949219 368.269531 851.871094 360.902344 853.332031 360.460938 C 854.863281 359.996094 865.050781 362.230469 867.808594 362.789062 L 868.597656 376.609375 C 872.898438 373.738281 878.054688 366.457031 883.679688 367.675781 C 887.929688 368.597656 891.898438 370.464844 895.648438 372.625 L 894.613281 388.328125 C 906.074219 380.808594 905.308594 377.765625 910.703125 378.917969 C 913.296875 379.660156 916.339844 381.441406 918.476562 384.019531 C 918.488281 384.808594 918.425781 385.402344 918.289062 386.179688 C 917.980469 387.964844 918.738281 390.226562 918.582031 392.199219 C 918.277344 396.070312 917.375 399.964844 916.863281 403.828125 Z M 916.863281 403.828125 " fill-opacity="1" fill-rule="nonzero"/><path fill="#ffffff" d="M 663.933594 179.878906 C 681.507812 188.507812 699.636719 197.367188 718.265625 203.5 C 680.417969 168.582031 694.488281 180.65625 656.8125 150.28125 C 637.867188 133.824219 623.59375 113.378906 613.332031 90.570312 C 616.308594 114.335938 624.066406 137.933594 636.527344 158.421875 C 644.257812 171.132812 644.300781 170.238281 663.9375 179.878906 Z M 663.933594 179.878906 " fill-opacity="1" fill-rule="nonzero"/><g clip-path="url(#8a05ba75ed)"><path fill="#ffffff" d="M 736.46875 207.472656 C 745.292969 217.117188 762.558594 212.3125 817.792969 249.105469 C 823.644531 253.003906 829.714844 256.929688 835.097656 261.460938 C 835.03125 231.429688 826.753906 201.773438 812.152344 175.605469 C 805.773438 164.6875 793.3125 146.792969 789.875 143.730469 C 798.089844 165.773438 804.121094 188.507812 807.398438 211.820312 C 808.410156 218.992188 808.777344 226.273438 809.328125 233.492188 C 777.164062 187.761719 736.410156 165.160156 709.507812 100.199219 C 706.746094 93.527344 704.746094 86.660156 702.273438 79.894531 C 699.566406 141.140625 720.449219 189.957031 736.472656 207.472656 Z M 736.46875 207.472656 " fill-opacity="1" fill-rule="nonzero"/></g><g clip-path="url(#848994cfd8)"><path fill="#ffffff" d="M 975.726562 333.359375 C 971.207031 341.929688 964.855469 348.582031 955.335938 351.542969 C 944.414062 354.9375 934.695312 350.859375 924.945312 346.246094 C 909.546875 338.613281 892.667969 330.742188 884.652344 322.554688 C 873.476562 311.140625 875.109375 292.484375 845.9375 272.347656 C 837.5625 266.566406 828.421875 262.105469 819.628906 257.039062 C 800.648438 246.097656 782.394531 235.09375 761.925781 227.03125 C 733.652344 215.898438 704.5 207.546875 676.824219 194.835938 C 657.414062 185.921875 639.289062 174.4375 620.695312 163.992188 C 615.769531 161.222656 610.765625 157.351562 605.664062 155.121094 C 617.882812 167.691406 631.984375 178.367188 644.890625 190.203125 C 706.828125 248.046875 694.886719 240.449219 735.003906 266.496094 L 613.953125 228.15625 C 644.246094 244.730469 669.035156 265.738281 695.289062 287.195312 L 593.691406 295.214844 C 598.554688 296.917969 605.179688 296.808594 610.332031 297.429688 L 627.53125 300.0625 C 660.757812 305.308594 692.082031 319.667969 718.023438 341.066406 C 658.574219 349.296875 659.53125 348.996094 655.441406 350.476562 C 652.75 351.453125 649.050781 351.296875 646.175781 351.539062 C 649.507812 348.699219 651.457031 348.722656 686.414062 340.855469 L 702.429688 337.640625 C 667.59375 311.710938 647.828125 309.925781 596.089844 299.820312 L 573.066406 297.234375 C 589.484375 291.523438 611.792969 288.386719 666.410156 279.246094 C 598.582031 222.753906 601.792969 231.9375 588.328125 219.46875 C 609.320312 221.039062 642.507812 228.636719 675.078125 235.308594 C 644.304688 199.171875 639.683594 193.210938 633.640625 188.960938 L 640.886719 202.449219 C 611.285156 196.640625 511.113281 205.300781 453.96875 243.554688 C 417.886719 267.710938 388.988281 306.4375 380.664062 349.421875 C 372.300781 392.621094 385.585938 439.15625 410.023438 475.15625 C 452.085938 537.128906 499.539062 557.003906 573.957031 588.066406 C 630.953125 611.855469 690.953125 638.011719 735.359375 682.214844 C 751.039062 697.824219 764.542969 714.84375 773.421875 735.296875 C 782.484375 756.167969 787.027344 777.695312 782.761719 800.375 C 773.558594 849.320312 721.5 890.875 675.136719 901.199219 C 678.449219 899.101562 682.371094 897.878906 685.953125 896.296875 C 714.695312 883.601562 746.613281 859.207031 764.222656 828.550781 C 775.621094 808.714844 778.273438 794.796875 777.25 772.730469 C 774.695312 777.714844 771.921875 790.160156 751.300781 807.8125 C 757.898438 797.5625 767.003906 788.867188 772.535156 766.328125 C 774.328125 759.023438 776.113281 758.058594 766.527344 736.832031 C 738.746094 675.316406 667.460938 633.039062 605.144531 607.105469 L 507.6875 568.304688 C 485.46875 558.546875 463.613281 547.53125 444.140625 532.921875 C 406.167969 504.4375 381.769531 465.039062 371.425781 418.332031 C 351.703125 329.269531 410.054688 226.425781 546.046875 197.011719 C 587.863281 187.96875 614.414062 193.75 625.484375 195.371094 C 574.921875 170.082031 522.589844 171.675781 505.160156 119.324219 L 502.585938 109.527344 C 494.472656 132.011719 496.757812 155.753906 506.78125 177.222656 L 513.640625 189.808594 C 487.355469 190.554688 461.152344 191.316406 434.976562 188.152344 C 387.023438 182.355469 368.707031 166.117188 353.988281 143.234375 C 352.679688 164.683594 359.890625 184.558594 374.085938 200.695312 C 386.824219 215.171875 402.363281 222.9375 420.242188 229.367188 C 417.277344 232.097656 410.515625 233.976562 406.726562 235.417969 C 378.597656 246.113281 349.652344 251.34375 319.523438 250.0625 C 277.925781 248.289062 227.027344 232.03125 199.195312 201.753906 C 196.699219 199.039062 194.523438 194.804688 191.832031 192.601562 C 193.851562 203.882812 199.820312 214.652344 205.824219 224.269531 C 221.699219 249.707031 242.078125 271.828125 266.730469 289.019531 C 294.867188 308.636719 325.636719 318.382812 359.019531 324.675781 C 351.464844 337.820312 342.105469 349.929688 332.988281 362.011719 C 291.101562 417.519531 253.011719 451.230469 168.261719 456.761719 C 192.625 467.789062 231.953125 475.105469 254.847656 476.15625 C 286.671875 477.621094 319.660156 470.988281 346.53125 459.886719 C 303.667969 545.339844 317.675781 631.277344 382.394531 700.640625 C 392.496094 711.425781 391.613281 710.6875 392.640625 711.394531 C 374.023438 682.390625 359.074219 649.476562 366.855469 614.1875 C 371.003906 595.375 380.070312 580.078125 393.480469 566.367188 C 398.449219 561.289062 403.429688 556.6875 409.417969 552.816406 C 407.691406 560.855469 406.492188 568.78125 406.320312 577.015625 C 405.648438 609.425781 418 644.835938 435.429688 671.855469 C 450.660156 695.453125 470.894531 715.835938 492.28125 733.867188 C 475.9375 704.554688 464.070312 668.296875 473.53125 634.742188 C 477.414062 620.976562 486.414062 607.96875 497.941406 599.507812 L 498.359375 599.496094 C 498.488281 607.949219 498.484375 616.476562 499.320312 624.898438 C 502.46875 656.488281 513.777344 685.78125 536.894531 708.214844 C 555.015625 725.796875 578.867188 736.652344 601.203125 747.832031 C 583.832031 733.472656 565.296875 714.261719 562.9375 690.566406 C 560.496094 666.070312 571.425781 646.632812 590.839844 634.445312 C 592.160156 637.210938 592.445312 641.050781 593.238281 644.078125 C 601.496094 675.640625 613.652344 698.019531 652.359375 724.238281 C 658.496094 728.390625 665.238281 733.238281 672.03125 736.175781 C 658.273438 722.261719 643.78125 702.484375 643.765625 681.972656 C 643.757812 673.308594 647.203125 664.976562 652.28125 658.085938 C 669.425781 671.386719 684.46875 685.328125 694.5 704.964844 C 698.058594 711.925781 701.121094 719.859375 702.066406 727.664062 C 705.007812 751.949219 697.875 766.136719 681.546875 779.449219 C 687.675781 776.785156 693.429688 774.078125 698.933594 770.234375 C 717.601562 757.191406 731.359375 733.875 730.992188 706.296875 C 746.722656 732.15625 751.371094 759.292969 744.242188 788.804688 C 733.511719 833.226562 703.460938 869.789062 675.976562 886.515625 C 642 907.195312 599.289062 908.878906 561.375 899.476562 C 512.726562 887.410156 471.949219 857.246094 433.90625 825.835938 C 393.253906 792.265625 352.753906 754.910156 270.933594 739.824219 C 235.910156 733.367188 199.054688 733.132812 164.332031 741.65625 C 187.027344 742.558594 210.5 744.328125 231.914062 752.546875 C 235.425781 753.894531 240.566406 755.800781 243.128906 758.679688 C 244.574219 760.304688 244.6875 761.855469 244.644531 763.945312 C 238.304688 778.746094 194.570312 782.023438 128.578125 829.503906 C 127.5625 830.230469 120.941406 834.785156 120.910156 835.171875 C 142.085938 830.414062 164.550781 827.785156 186.242188 829.757812 C 149.285156 864.402344 129.085938 902.867188 111.65625 932.792969 L 96.171875 965.179688 C 107.6875 954.804688 119.3125 944.703125 131.714844 935.394531 C 160.394531 913.878906 215.800781 879.4375 251.019531 881.40625 C 273.386719 882.65625 281.417969 895.238281 288.347656 914.59375 C 288.527344 915.09375 288.363281 914.945312 288.722656 915.128906 L 290.171875 900.722656 C 293.046875 884.421875 300.679688 869.941406 314.359375 860.15625 C 324.117188 853.171875 338.667969 847.722656 350.863281 849.863281 C 351.851562 850.046875 350.753906 849.871094 357.132812 850.839844 C 352.003906 844.9375 346.816406 839.089844 340.894531 833.964844 C 327.839844 822.65625 312.066406 815.441406 294.738281 814.246094 C 277.207031 813.035156 262.46875 815.292969 238.386719 826.851562 C 197.898438 846.289062 171.421875 872.914062 167.066406 874.097656 C 190.117188 850.910156 214.503906 830.140625 244.472656 816.382812 C 287.535156 796.621094 323.800781 801.71875 361.351562 839.066406 C 392.1875 869.734375 413.335938 909.277344 475.375 949.6875 C 621.84375 1045.089844 801.800781 999.3125 874.816406 926.1875 C 906.398438 894.558594 929.863281 851.652344 937.804688 807.550781 C 940.238281 794.046875 940.976562 780.058594 940.929688 766.347656 C 940.820312 736.109375 934.757812 708.257812 924.394531 679.984375 C 911.050781 643.582031 895.671875 615.171875 864.199219 584.066406 C 843.367188 563.472656 831.105469 557.609375 804.886719 544.226562 C 744.402344 513.34375 720.28125 508.441406 653.917969 488.957031 C 590.726562 468.246094 527.636719 452.859375 507.820312 409.242188 C 494.117188 379.074219 509.921875 338.136719 548.046875 321.242188 C 567.011719 312.839844 599.890625 308.351562 620.964844 307.976562 C 632.1875 307.777344 630.847656 307.566406 638.488281 313.464844 C 651.925781 323.84375 659.980469 330.679688 665.117188 343.1875 C 628.566406 353.265625 642.476562 349.113281 604.453125 361.125 C 602.625 361.703125 596.238281 363.058594 595.183594 364.171875 C 638.464844 365.269531 662.574219 365.960938 698.355469 381.355469 C 693.597656 385.785156 675.671875 399.035156 660.707031 407.363281 C 671.019531 405.832031 681.410156 405.570312 691.816406 405.601562 C 729.179688 405.710938 764.148438 413.746094 798.253906 428.867188 C 815.601562 436.554688 856.230469 457.015625 858.738281 475.792969 C 859.539062 481.753906 856.46875 486.796875 852.871094 491.226562 C 841.617188 505.078125 821.871094 513.738281 804.804688 517.734375 C 806.191406 518.382812 810.105469 517.976562 811.765625 517.964844 C 828.417969 517.847656 844.195312 515.261719 859.890625 509.597656 C 891.765625 498.09375 910.308594 481.332031 922.660156 471.269531 L 889.238281 483.460938 C 888.921875 482.226562 887.703125 479.003906 887.890625 477.84375 C 888.101562 476.542969 887.359375 477.953125 909.109375 443.191406 L 881.292969 463.429688 L 874.839844 454.332031 L 887.632812 428.019531 L 865.117188 444.300781 L 854.03125 434.175781 L 856.40625 413.066406 L 847.664062 419.832031 C 844.589844 415.703125 842.871094 410.777344 839.976562 406.558594 C 831.933594 394.835938 819.285156 385.457031 806.988281 378.65625 C 804.34375 377.191406 801.652344 375.433594 798.835938 374.351562 C 827.773438 402.558594 838.714844 411.574219 843.265625 424.375 C 823.1875 411.691406 780.960938 366.261719 765.332031 352.523438 C 771.125 351.167969 776.980469 349.515625 782.847656 348.558594 C 867.261719 334.804688 932.53125 371.640625 938.714844 397.089844 C 942.15625 411.253906 934.71875 429.269531 927.132812 440.957031 L 922.648438 446.929688 C 928.214844 443.308594 933.363281 437.660156 937.902344 432.808594 C 954.941406 414.585938 969.121094 393.765625 974.332031 368.941406 C 976.757812 357.390625 976.671875 338.65625 975.734375 333.378906 Z M 524.628906 959.089844 C 514.117188 950.910156 507.492188 940.90625 505.894531 927.476562 C 505.585938 924.890625 504.667969 920.257812 506.355469 918.117188 C 507.152344 918.605469 506.960938 918.25 506.984375 919.117188 C 507.28125 931.332031 514.320312 944.238281 521.898438 953.503906 C 524.699219 956.925781 527.867188 959.570312 530.535156 963.222656 Z M 568.285156 289.316406 C 567.992188 288.421875 568.378906 286.941406 568.480469 286.003906 C 570.121094 270.964844 578.132812 257.128906 592.761719 247.582031 C 595.59375 245.734375 598.628906 244.417969 601.535156 242.722656 C 593.445312 242.453125 584.953125 242.246094 577.089844 243.421875 C 561.957031 245.675781 547.207031 252.816406 536.164062 263.398438 C 525.945312 273.1875 522.082031 283.386719 521.792969 297.292969 L 543.644531 299.921875 C 535.855469 300.632812 527.511719 300.242188 519.707031 299.625 C 518.578125 276.957031 527.695312 259.589844 550.402344 246.632812 C 544.640625 246.316406 526.898438 249.425781 516.761719 253.941406 C 505.34375 259.019531 492.648438 269.746094 485.75 280.152344 C 476.652344 293.875 475.980469 310.8125 479.226562 326.546875 C 490.136719 322.371094 503.898438 316.710938 515.832031 318.167969 C 502.804688 320.792969 490.960938 324.460938 478.835938 329.976562 C 471.757812 317.613281 472.800781 289.757812 482.789062 274.972656 C 484.371094 272.632812 486.75 270.199219 487.917969 267.6875 C 477.1875 272.78125 466.699219 281.527344 459.035156 290.492188 C 440.734375 311.90625 437.09375 342.433594 458.46875 360.347656 C 454.484375 359.253906 450.136719 354.875 447.570312 351.734375 C 439.628906 342.003906 438.59375 327.640625 439.65625 315.679688 L 432.496094 330.878906 C 427.101562 344.101562 424.75 361.542969 430.539062 374.984375 C 436.824219 389.566406 450.523438 398.609375 464.804688 404.136719 C 467.535156 386.203125 475.574219 366.757812 489.472656 354.640625 C 484.3125 362.203125 472.199219 374.871094 467.984375 407.890625 L 454.972656 402.941406 C 438.1875 395.015625 427.5625 381.820312 421.4375 364.59375 L 421.359375 375.636719 C 422.03125 392.523438 426.492188 413.410156 439.46875 425.246094 C 457.144531 441.363281 483.0625 448.949219 506.632812 447.964844 C 499.097656 424.582031 495.796875 415.457031 495.003906 408.097656 C 495.769531 409.121094 493.707031 404.601562 511.574219 450.78125 C 484.933594 453.253906 456.484375 446.242188 434.871094 430.429688 C 440.011719 442.375 446.4375 452.324219 454.835938 462.269531 C 461.554688 470.226562 460.050781 468.800781 471.152344 472.054688 C 494.1875 478.808594 521.578125 479.945312 544.988281 474.3125 L 531.1875 449.535156 C 533.449219 451.289062 534.648438 453.3125 550.488281 476.035156 C 533.105469 481.730469 498.328125 484.265625 470.296875 478.773438 C 483.957031 492.320312 506.769531 508.730469 511.851562 510.097656 C 517.597656 511.640625 555.261719 514.492188 583.800781 498.851562 L 566.941406 468.785156 C 575.726562 477.414062 583.019531 489.007812 588.21875 500.070312 C 567.914062 511.074219 545.078125 516.234375 522.132812 517.113281 C 560.390625 536.355469 554.804688 533.582031 557.554688 534.851562 C 559.898438 535.59375 562.855469 535.390625 565.292969 535.394531 C 581.519531 535.414062 596.925781 529.25 611.316406 522.324219 C 618.523438 518.855469 625.707031 515.3125 632.617188 511.273438 C 628.136719 504.824219 614.316406 492.230469 606.628906 486.648438 L 607.425781 486.585938 C 618.523438 492.613281 631.191406 501.71875 638.226562 512.417969 C 584.222656 541.097656 579.441406 538.675781 573.101562 541.210938 L 610.160156 555.160156 C 614.570312 556.601562 614.199219 557.117188 625.109375 554.261719 C 646.320312 548.710938 666.417969 538.179688 685.902344 528.308594 C 685.464844 526.816406 683.28125 524.761719 682.230469 523.5625 C 675.574219 515.972656 668.066406 508.742188 659.832031 502.890625 C 665.820312 504.703125 683.324219 517.417969 690.972656 529.019531 L 624.644531 560.496094 L 673.5 576.207031 C 685.300781 579.707031 732.363281 556.476562 745.375 549.65625 C 736.148438 536.621094 725.574219 525.496094 712.855469 515.878906 C 721.277344 518.917969 737.980469 532.8125 750.753906 549.960938 L 687.492188 581.015625 C 727.488281 597.46875 722.296875 595.976562 723.65625 596.21875 C 725.429688 596.535156 730.363281 594.683594 732.390625 594.195312 C 754.808594 588.785156 776.855469 582.929688 798.390625 574.589844 C 793.273438 564.292969 786.320312 555.050781 778.621094 546.550781 C 776.300781 543.992188 772.460938 541.277344 770.710938 538.460938 C 773.472656 539.933594 775.824219 542.222656 778.1875 544.257812 C 788.625 553.238281 796.726562 563.917969 803.800781 575.667969 C 760.917969 590.953125 745.996094 596.945312 730.78125 599.648438 L 745.378906 608.261719 C 750.554688 611.421875 754.371094 615.015625 760.261719 616.097656 C 773.320312 618.652344 780.035156 616.734375 845.027344 610.859375 C 841.042969 595.601562 836.128906 581.730469 825.816406 569.546875 L 825.976562 568.933594 C 838.257812 581.226562 846.476562 597.402344 850.546875 614.246094 L 767.660156 623.570312 C 781.222656 632.507812 791.175781 643.574219 792.554688 644.292969 C 793.234375 644.644531 792.164062 644.199219 806.75 647.113281 C 843.996094 655.960938 847.007812 655.730469 878.234375 670.207031 C 879.046875 666.554688 878.742188 662.273438 878.742188 658.539062 C 878.738281 643.5625 877.175781 629.480469 875.070312 614.683594 C 881.222656 632.015625 883.152344 661.347656 881.71875 676.847656 C 852.582031 660.429688 820.371094 655.28125 799.265625 651.175781 C 813.128906 668.339844 812.035156 667.210938 820.402344 680.488281 C 821.476562 682.34375 823.757812 687.671875 825.324219 688.726562 C 829.296875 691.390625 863.574219 698.722656 903.523438 732.199219 C 909.757812 718.527344 915.007812 703.253906 914.144531 688.03125 C 913.953125 684.628906 913.179688 681.34375 912.476562 678.019531 L 914.1875 681.902344 C 920.214844 698.859375 912.515625 722.996094 904.941406 738.535156 C 894.246094 728.769531 880.519531 720.617188 867.777344 713.839844 L 827.746094 695.808594 C 830.996094 704.535156 834.625 713.101562 836.933594 722.152344 C 841.226562 740.527344 840.519531 738.542969 840.921875 739.214844 C 840.957031 739.273438 861.863281 750.375 864.25 751.867188 C 885.429688 765.105469 905.226562 787.25 908.824219 794.488281 C 902.523438 790.023438 896.972656 783.410156 891.125 778.269531 C 875.941406 764.921875 859.550781 753.273438 841.351562 744.410156 C 841.582031 750.824219 842.347656 757.183594 842.292969 763.617188 C 841.9375 780.316406 840.992188 774.738281 844.753906 780.859375 C 854.738281 798.679688 862.378906 814.160156 866.074219 836.960938 C 893.300781 823.117188 917.566406 798.285156 928.917969 769.726562 L 927.253906 776.953125 C 917.449219 807.265625 890.488281 829.417969 862.992188 843.375 C 861.050781 825.070312 855.429688 810.03125 846.367188 794.097656 C 844.675781 791.121094 842.8125 786.96875 840.367188 784.664062 C 838.648438 792.980469 836.742188 800.902344 833.789062 808.878906 C 832.929688 811.1875 826.667969 825.40625 826.695312 826.597656 C 826.738281 828.664062 828.15625 830.019531 829.300781 840.292969 C 831.460938 859.675781 831.167969 879.007812 824.625 897.542969 C 827.554688 897.703125 825.695312 897.761719 868.535156 885.980469 C 874.46875 884.199219 880.378906 881.660156 886.402344 880.335938 C 866.351562 892.035156 843.25 899.390625 820.214844 902.269531 C 820.488281 900.101562 832.546875 874.28125 821.320312 834.789062 C 818.386719 841.273438 807.882812 857.90625 792.6875 874.96875 C 782.992188 885.851562 781.6875 884.640625 774.292969 899.914062 C 768.394531 912.105469 764.792969 924.59375 762.457031 937.890625 C 791.058594 942.546875 820.101562 936.054688 829.703125 935.480469 C 825.695312 937.039062 821.269531 938.066406 817.113281 939.171875 C 798.984375 943.984375 777.484375 946.761719 759.328125 940.824219 C 758.976562 926.621094 763.3125 912.535156 768.035156 899.3125 C 745.230469 918.050781 732.707031 922.71875 725.292969 927.726562 C 712.542969 936.347656 701.660156 946.582031 692.152344 958.636719 C 693.242188 959.890625 695.917969 960.777344 697.449219 961.472656 C 714.792969 969.332031 735.238281 970.679688 753.988281 972.421875 L 754.277344 972.921875 C 737.332031 974.03125 719.640625 974.675781 703.394531 968.894531 C 697.664062 966.859375 692.394531 963.859375 687.273438 960.625 C 687.414062 959.019531 688.738281 956.847656 689.507812 955.410156 C 693.957031 947.054688 700.4375 940.351562 706.976562 933.640625 C 678.316406 948.257812 640.605469 947.507812 639.71875 948 C 638.710938 948.558594 640.839844 946.894531 623.875 962.851562 C 647.734375 982.851562 669.847656 986.878906 677.015625 988.945312 L 672.074219 988.953125 C 651.589844 988.578125 633.679688 977.253906 619.882812 963.003906 C 623.113281 957.582031 628.027344 952.667969 632.074219 947.800781 C 610.230469 948.953125 576.976562 940.300781 562.417969 936.652344 L 562.769531 943.429688 C 564.789062 959.289062 581.378906 971.691406 593.066406 980.925781 C 583.191406 978.15625 572.015625 970.234375 565.875 962.027344 C 559.945312 954.105469 559.785156 946.101562 561.113281 936.738281 C 560.078125 935.953125 560.527344 936.300781 547.425781 932.332031 C 381.167969 881.585938 385.390625 745.507812 222.457031 795.070312 C 212.015625 798.246094 202.097656 803.046875 191.730469 806.160156 C 202.378906 799.574219 243.347656 783.046875 271.558594 780.835938 C 389.597656 771.585938 414.023438 894.34375 574.410156 932.953125 C 598.558594 938.765625 623.277344 941.671875 648.089844 939.589844 C 689.507812 936.113281 731.726562 919.363281 764.21875 893.421875 C 791.332031 871.78125 819.632812 834.28125 829.097656 798.605469 C 838.5 763.179688 833.921875 721.074219 811.125 682.878906 C 785.011719 639.132812 740.789062 612.273438 694.851562 593.144531 C 641.148438 572.980469 650.507812 576.539062 580.304688 552.3125 C 544.703125 538.496094 499.652344 516.015625 470.617188 491.546875 C 412.476562 442.546875 393.746094 353.417969 447.15625 291.050781 C 470.664062 263.59375 505.800781 246.324219 540.898438 239.375 C 550.566406 237.460938 560.550781 236.582031 570.371094 235.820312 C 574.566406 235.148438 585.765625 235.542969 589.972656 235.582031 C 607.148438 235.738281 609.597656 234.953125 618.128906 241.917969 L 594.589844 252.839844 C 579.738281 261.605469 572.496094 272.835938 568.28125 289.332031 Z M 671.808594 402.578125 C 692.820312 391.617188 715.808594 382.484375 739.007812 377.496094 C 731.914062 371.667969 722.949219 368.519531 714.367188 365.496094 C 694.769531 358.582031 675.339844 354.332031 654.890625 350.832031 C 662.984375 350.339844 670.800781 351.515625 678.777344 352.726562 C 700.546875 356.023438 723.707031 361.703125 743.140625 372.347656 C 748.890625 375.5 754.085938 379.621094 759.050781 383.871094 C 711.523438 383.339844 674.957031 403.601562 671.808594 402.578125 Z M 819.132812 312.574219 C 806.457031 305.269531 798.953125 290.890625 795.378906 277.222656 C 797.808594 279.558594 800.105469 281.683594 803.019531 283.410156 C 804.585938 284.335938 805.785156 291.527344 806.511719 293.601562 C 809.414062 301.886719 814.753906 307.609375 820.949219 313.597656 L 819.132812 312.570312 Z M 842.703125 316.859375 C 828.046875 311.40625 817.148438 301.101562 810.644531 286.945312 L 831.179688 293.023438 C 846.785156 298.3125 859.527344 308.738281 866.824219 323.625 Z M 955.488281 388.761719 C 955.667969 385.289062 956.25 381.90625 955.878906 378.425781 C 955.128906 371.382812 950.65625 367.878906 945.5 363.722656 C 950.332031 364.226562 954.875 363.984375 959.695312 363.628906 C 959.632812 371.847656 958.367188 381.039062 955.488281 388.761719 Z M 955.488281 388.761719 " fill-opacity="1" fill-rule="nonzero"/></g></svg>