<!DOCTYPE svg PUBLIC "-//W3C//DTD SVG 1.1//EN" "http://www.w3.org/Graphics/SVG/1.1/DTD/svg11.dtd">
<!-- Uploaded to: SVG Repo, www.svgrepo.com, Transformed by: SVG Repo Mixer Tools -->
<svg fill="#ffffff" height="800px" width="800px" version="1.1" id="Layer_1" xmlns="http://www.w3.org/2000/svg" xmlns:xlink="http://www.w3.org/1999/xlink" viewBox="0 0 511.997 511.997" xml:space="preserve" stroke="#ffffff">
<g id="SVGRepo_bgCarrier" stroke-width="0"/>
<g id="SVGRepo_tracerCarrier" stroke-linecap="round" stroke-linejoin="round"/>
<g id="SVGRepo_iconCarrier"> <g> <g> <g> <path d="M503.464,405.332c-24.687,0-80.239-37.367-100.548-52.471l-1.698-1.937c-17.142-19.348-38.054-34.108-60.97-43.819 c6.306-14.777,9.614-30.785,9.614-46.839c0-65.877-53.589-119.467-119.467-119.467c-65.869,0-119.467,53.589-119.467,119.467 c0,11.105,1.849,22.884,5.386,34.506C56.016,316.57,4.935,371.059,2.276,373.929c-3.2,3.456-3.004,8.858,0.452,12.058 s8.841,2.995,12.058-0.452c0.29-0.312,11.363-12.132,28.811-26.737c-0.592,1.162-0.933,2.474-0.933,3.867 c0,4.71,3.814,8.533,8.533,8.533s8.533-3.823,8.533-8.533s-3.814-8.533-8.533-8.533c-0.806,0-1.583,0.119-2.322,0.328 c4.363-3.524,9.046-7.152,14.004-10.776c1.468,1.196,3.341,1.915,5.385,1.915c4.719,0,8.533-3.823,8.533-8.533 c0-0.954-0.163-1.868-0.452-2.725c11.011-7.223,22.946-14.009,35.32-19.419c1.326,2.989,4.313,5.078,7.798,5.078 c4.719,0,8.533-3.823,8.533-8.533c0-0.907-0.144-1.779-0.406-2.599c0.282-0.091,0.564-0.182,0.847-0.271 c0.41-0.062,0.82-0.145,1.229-0.27c6.882-2.105,13.587-3.585,20.061-4.46c-2.768,1.411-4.664,4.282-4.664,7.6 c0,4.71,3.814,8.533,8.533,8.533c4.719,0,8.533-3.823,8.533-8.533c0-3.956-2.695-7.276-6.352-8.242 c2.317-0.176,4.604-0.282,6.849-0.29c1.09,0.068,2.33,0.2,3.661,0.404c0.022,0.003,0.043,0.006,0.065,0.009 c0.402,0.062,0.815,0.133,1.231,0.208c0.077,0.014,0.152,0.026,0.23,0.04c0.365,0.067,0.737,0.144,1.109,0.221 c0.131,0.027,0.259,0.051,0.391,0.08c0.329,0.071,0.662,0.151,0.995,0.229c0.175,0.041,0.348,0.079,0.523,0.123 c0.294,0.073,0.589,0.155,0.884,0.234c0.213,0.057,0.427,0.111,0.64,0.172c0.256,0.073,0.509,0.153,0.764,0.231 c0.25,0.076,0.5,0.149,0.748,0.229c0.22,0.071,0.435,0.15,0.652,0.225c0.276,0.095,0.555,0.188,0.827,0.289 c0.187,0.069,0.368,0.146,0.553,0.218c0.295,0.115,0.592,0.228,0.88,0.351c0.152,0.064,0.296,0.135,0.445,0.202 c0.311,0.138,0.625,0.276,0.925,0.423c0.112,0.055,0.215,0.115,0.325,0.171c0.327,0.166,0.654,0.333,0.964,0.51 c0.068,0.039,0.128,0.081,0.195,0.12c0.342,0.2,0.679,0.404,0.996,0.618c0.016,0.011,0.03,0.023,0.046,0.034 c1.109,0.754,2.055,1.592,2.759,2.518c0.137,0.178,0.271,0.377,0.403,0.587c0.311,0.499,0.597,1.094,0.776,1.845 c0.188,0.795,0.257,1.761,0.121,2.956c-0.001,0.008-0.001,0.015-0.002,0.024c-0.015,0.127-0.048,0.273-0.067,0.405 c-0.044,0.292-0.084,0.58-0.153,0.899c-0.001,0.005-0.001,0.011-0.002,0.016c0,0,0,0,0,0.001 c-0.071,0.333-0.116,0.665-0.146,0.995c-0.009,0.099-0.012,0.197-0.017,0.295c-0.014,0.247-0.019,0.493-0.012,0.738 c0.003,0.102,0.006,0.203,0.013,0.304c0.017,0.268,0.048,0.532,0.09,0.794c0.011,0.068,0.016,0.136,0.029,0.203 c0.059,0.317,0.135,0.628,0.229,0.933c0.032,0.107,0.074,0.211,0.111,0.317c0.069,0.197,0.142,0.391,0.224,0.581 c0.057,0.132,0.117,0.262,0.18,0.392c0.082,0.166,0.172,0.327,0.264,0.487c0.072,0.124,0.138,0.25,0.216,0.371 c0.158,0.245,0.33,0.481,0.513,0.709c0.089,0.111,0.186,0.215,0.281,0.322c0.13,0.146,0.263,0.289,0.403,0.426 c0.056,0.055,0.103,0.117,0.161,0.17c0.044,0.041,0.094,0.073,0.138,0.112c0.178,0.159,0.365,0.309,0.557,0.453 c0.072,0.054,0.14,0.114,0.214,0.166c0.253,0.177,0.519,0.339,0.792,0.489c0.122,0.067,0.248,0.125,0.373,0.186 c0.163,0.079,0.328,0.155,0.498,0.224c0.152,0.063,0.305,0.121,0.461,0.174c0.14,0.048,0.284,0.089,0.428,0.13 c0.178,0.051,0.354,0.104,0.535,0.143c0.007,0.001,0.013,0.004,0.02,0.005c0.192,0.043,0.383,0.066,0.574,0.095 c0.15,0.022,0.298,0.047,0.449,0.061c0.261,0.024,0.521,0.041,0.777,0.041c0.032,0,0.063-0.007,0.095-0.008 c0.388-0.005,0.776-0.033,1.164-0.092c0.126-0.019,0.247-0.052,0.372-0.077c0.26-0.051,0.52-0.099,0.777-0.174 c0,0,0.077-0.023,0.212-0.063c0,0,0.001,0,0.001,0c1.749-0.518,14.435-4.289,29.252-9.136c1.635-0.534,3.276-1.03,4.919-1.508 c0.318-0.092,0.635-0.188,0.953-0.278c1.39-0.395,2.783-0.76,4.178-1.115c0.694-0.175,1.389-0.35,2.086-0.515 c0.659-0.158,1.319-0.302,1.978-0.451c2.89-0.648,5.796-1.213,8.714-1.693c0.612,4.109,4.142,7.268,8.429,7.268 c4.719,0,8.533-3.823,8.533-8.533c0-0.195-0.016-0.386-0.029-0.578c5.704-0.308,11.422-0.311,17.125,0.004 c-0.013,0.191-0.029,0.38-0.029,0.574c0,4.71,3.814,8.533,8.533,8.533c4.277,0,7.801-3.144,8.425-7.24 c9.217,1.526,18.312,3.876,27.148,7.06c0.304,0.109,0.61,0.194,0.918,0.267c21.827,8.027,41.898,21,58.429,38.471 c-0.671,1.219-1.054,2.618-1.054,4.108c0,4.71,3.814,8.533,8.533,8.533c1.72,0,3.316-0.512,4.655-1.386 c3.574,2.585,8.601,6.148,14.611,10.216c-0.703-0.187-1.437-0.296-2.199-0.296c-4.719,0-8.533,3.823-8.533,8.533 s3.814,8.533,8.533,8.533s8.533-3.823,8.533-8.533c0-1.945-0.658-3.733-1.753-5.168c25.22,16.721,63.62,39.302,87.087,39.302 c4.719,0,8.533-3.823,8.533-8.533S508.183,405.332,503.464,405.332z M127.995,260.265c0-56.465,45.935-102.4,102.4-102.4 c56.474,0,102.4,45.935,102.4,102.4c0,14.282-2.891,28.028-8.577,40.968c-33.39-10.369-69.948-10.53-104.777,0.837 c-0.018,0.006-0.035,0.011-0.052,0.017c-0.009,0.003-0.018,0.006-0.027,0.009l-15.565,4.949 c-0.009,0.009-0.026,0.009-0.043,0.017l-1.545,0.384c-0.486,0.111-0.947,0.222-1.399,0.333c-0.157-0.509-0.347-1.006-0.539-1.503 c-0.042-0.109-0.074-0.221-0.118-0.329c-0.252-0.623-0.533-1.236-0.84-1.838c-0.011-0.021-0.019-0.044-0.03-0.066 c-0.546-1.063-1.193-2.083-1.91-3.071c-0.131-0.182-0.246-0.371-0.383-0.55c-1.751-2.295-3.868-4.224-6.174-5.854 c-10.665-7.547-25.425-8.583-27.39-8.695c-0.152-0.008-0.305-0.008-0.457-0.008c0,0-0.001,0-0.001,0c0,0-0.001,0-0.001,0 s-0.001,0-0.001,0c-0.049,0-0.099,0.002-0.148,0.003c-10.101,0.014-20.216,1.444-30.183,3.918 C129.589,279.781,127.995,269.699,127.995,260.265z"/> <path d="M230.397,123.732c4.719,0,8.533-3.823,8.533-8.533V98.132c0-4.71-3.814-8.533-8.533-8.533s-8.533,3.823-8.533,8.533 v17.067C221.864,119.909,225.678,123.732,230.397,123.732z"/> <path d="M375.464,268.799h17.067c4.719,0,8.533-3.823,8.533-8.533c0-4.71-3.814-8.533-8.533-8.533h-17.067 c-4.719,0-8.533,3.823-8.533,8.533C366.931,264.976,370.745,268.799,375.464,268.799z"/> <path d="M68.264,268.799h17.067c4.719,0,8.533-3.823,8.533-8.533c0-4.71-3.814-8.533-8.533-8.533H68.264 c-4.719,0-8.533,3.823-8.533,8.533C59.731,264.976,63.545,268.799,68.264,268.799z"/> <path d="M121.789,163.719c1.664,1.664,3.849,2.5,6.033,2.5s4.369-0.836,6.033-2.5c3.336-3.337,3.336-8.73,0-12.066 l-12.066-12.066c-3.336-3.337-8.73-3.337-12.066,0c-3.337,3.337-3.337,8.73,0,12.066L121.789,163.719z"/> <path d="M332.972,166.22c2.185,0,4.369-0.836,6.033-2.5l12.066-12.066c3.337-3.337,3.337-8.73,0-12.066s-8.73-3.337-12.066,0 l-12.066,12.066c-3.337,3.336-3.337,8.73,0,12.066C328.603,165.383,330.788,166.22,332.972,166.22z"/> <path d="M238.931,345.599c4.719,0,8.533-3.823,8.533-8.533c0-4.71-3.814-8.533-8.533-8.533s-8.533,3.823-8.533,8.533 C230.397,341.776,234.212,345.599,238.931,345.599z"/> <path d="M238.931,379.732c-4.719,0-8.533,3.823-8.533,8.533s3.814,8.533,8.533,8.533s8.533-3.823,8.533-8.533 S243.65,379.732,238.931,379.732z"/> <path d="M273.064,345.599c4.719,0,8.533-3.823,8.533-8.533c0-4.71-3.814-8.533-8.533-8.533s-8.533,3.823-8.533,8.533 C264.531,341.776,268.345,345.599,273.064,345.599z"/> <path d="M307.197,345.599c4.719,0,8.533-3.823,8.533-8.533c0-4.71-3.814-8.533-8.533-8.533s-8.533,3.823-8.533,8.533 C298.664,341.776,302.478,345.599,307.197,345.599z"/> <path d="M341.331,345.599c4.719,0,8.533-3.823,8.533-8.533c0-4.71-3.814-8.533-8.533-8.533c-4.719,0-8.533,3.823-8.533,8.533 C332.797,341.776,336.612,345.599,341.331,345.599z"/> <path d="M324.264,354.132c-4.719,0-8.533,3.823-8.533,8.533s3.814,8.533,8.533,8.533c4.719,0,8.533-3.823,8.533-8.533 S328.983,354.132,324.264,354.132z"/> <path d="M290.131,354.132c-4.719,0-8.533,3.823-8.533,8.533s3.814,8.533,8.533,8.533s8.533-3.823,8.533-8.533 S294.85,354.132,290.131,354.132z"/> <path d="M255.997,354.132c-4.719,0-8.533,3.823-8.533,8.533s3.814,8.533,8.533,8.533c4.719,0,8.533-3.823,8.533-8.533 S260.716,354.132,255.997,354.132z"/> <path d="M358.397,354.132c-4.719,0-8.533,3.823-8.533,8.533s3.814,8.533,8.533,8.533s8.533-3.823,8.533-8.533 S363.116,354.132,358.397,354.132z"/> <path d="M375.464,379.732c-4.719,0-8.533,3.823-8.533,8.533s3.814,8.533,8.533,8.533s8.533-3.823,8.533-8.533 S380.183,379.732,375.464,379.732z"/> <path d="M341.331,379.732c-4.719,0-8.533,3.823-8.533,8.533s3.814,8.533,8.533,8.533c4.719,0,8.533-3.823,8.533-8.533 S346.05,379.732,341.331,379.732z"/> <path d="M307.197,379.732c-4.719,0-8.533,3.823-8.533,8.533s3.814,8.533,8.533,8.533s8.533-3.823,8.533-8.533 S311.916,379.732,307.197,379.732z"/> <path d="M273.064,379.732c-4.719,0-8.533,3.823-8.533,8.533s3.814,8.533,8.533,8.533s8.533-3.823,8.533-8.533 S277.783,379.732,273.064,379.732z"/> <path d="M136.531,345.599c4.719,0,8.533-3.823,8.533-8.533c0-4.71-3.814-8.533-8.533-8.533s-8.533,3.823-8.533,8.533 C127.997,341.776,131.812,345.599,136.531,345.599z"/> <path d="M136.531,379.732c-4.719,0-8.533,3.823-8.533,8.533s3.814,8.533,8.533,8.533s8.533-3.823,8.533-8.533 S141.25,379.732,136.531,379.732z"/> <path d="M170.664,345.599c4.719,0,8.533-3.823,8.533-8.533c0-4.71-3.814-8.533-8.533-8.533s-8.533,3.823-8.533,8.533 C162.131,341.776,165.945,345.599,170.664,345.599z"/> <path d="M204.797,345.599c4.719,0,8.533-3.823,8.533-8.533c0-4.71-3.814-8.533-8.533-8.533s-8.533,3.823-8.533,8.533 C196.264,341.776,200.078,345.599,204.797,345.599z"/> <path d="M221.864,354.132c-4.719,0-8.533,3.823-8.533,8.533s3.814,8.533,8.533,8.533s8.533-3.823,8.533-8.533 S226.583,354.132,221.864,354.132z"/> <path d="M187.731,354.132c-4.719,0-8.533,3.823-8.533,8.533s3.814,8.533,8.533,8.533s8.533-3.823,8.533-8.533 S192.45,354.132,187.731,354.132z"/> <path d="M153.597,354.132c-4.719,0-8.533,3.823-8.533,8.533s3.814,8.533,8.533,8.533c4.719,0,8.533-3.823,8.533-8.533 S158.316,354.132,153.597,354.132z"/> <path d="M204.797,379.732c-4.719,0-8.533,3.823-8.533,8.533s3.814,8.533,8.533,8.533s8.533-3.823,8.533-8.533 S209.516,379.732,204.797,379.732z"/> <path d="M170.664,379.732c-4.719,0-8.533,3.823-8.533,8.533s3.814,8.533,8.533,8.533s8.533-3.823,8.533-8.533 S175.383,379.732,170.664,379.732z"/> <path d="M102.397,345.599c4.719,0,8.533-3.823,8.533-8.533c0-4.71-3.814-8.533-8.533-8.533s-8.533,3.823-8.533,8.533 C93.864,341.776,97.678,345.599,102.397,345.599z"/> <path d="M119.464,354.132c-4.719,0-8.533,3.823-8.533,8.533s3.814,8.533,8.533,8.533s8.533-3.823,8.533-8.533 S124.183,354.132,119.464,354.132z"/> <path d="M85.331,354.132c-4.719,0-8.533,3.823-8.533,8.533s3.814,8.533,8.533,8.533s8.533-3.823,8.533-8.533 S90.05,354.132,85.331,354.132z"/> <path d="M102.397,379.732c-4.719,0-8.533,3.823-8.533,8.533s3.814,8.533,8.533,8.533s8.533-3.823,8.533-8.533 S107.116,379.732,102.397,379.732z"/> <path d="M68.264,379.732c-4.719,0-8.533,3.823-8.533,8.533s3.814,8.533,8.533,8.533s8.533-3.823,8.533-8.533 S72.983,379.732,68.264,379.732z"/> <path d="M34.131,379.732c-4.719,0-8.533,3.823-8.533,8.533s3.814,8.533,8.533,8.533s8.533-3.823,8.533-8.533 S38.85,379.732,34.131,379.732z"/> </g> </g> </g> </g>
</svg>