<!DOCTYPE svg PUBLIC "-//W3C//DTD SVG 1.1//EN" "http://www.w3.org/Graphics/SVG/1.1/DTD/svg11.dtd">
<!-- Uploaded to: SVG Repo, www.svgrepo.com, Transformed by: SVG Repo Mixer Tools -->
<svg fill="#ffffff" height="800px" width="800px" version="1.1" id="Layer_1" xmlns="http://www.w3.org/2000/svg" xmlns:xlink="http://www.w3.org/1999/xlink" viewBox="0 0 512 512" xml:space="preserve" stroke="#ffffff">
<g id="SVGRepo_bgCarrier" stroke-width="0"/>
<g id="SVGRepo_tracerCarrier" stroke-linecap="round" stroke-linejoin="round"/>
<g id="SVGRepo_iconCarrier"> <g> <g> <g> <path d="M508.672,331.552c0-18.987-10.667-38.592-29.824-38.592h-0.107l-38.101,4.587c-17.323,0.363-31.296,14.571-31.296,31.68 l-4.011,134.293c0,17.621,14.315,31.957,30.933,31.957h0.064L480,499.509c17.643,0,32-14.357,32-32.277L508.672,331.552z M481.003,478.219l-43.669-4.032c-5.888,0-10.667-4.779-10.667-10.347l4.011-134.293c0-5.867,4.779-10.667,10.667-10.667 c0.427,0,0.853-0.021,1.28-0.085L480,314.208c2.752,0,7.339,8.384,7.339,17.6l3.328,135.701 C490.667,473.397,485.888,478.176,481.003,478.219z"/> <path d="M426.667,90.187V62.176c0-29.419-23.936-53.333-53.483-53.333C368,8.907,246.293,10.72,206.101,12.853 c-39.317,2.091-149.12,12.501-152.768,12.885C23.936,25.739,0,49.653,0,79.072v11.115c0,23.36,12.16,40.512,31.744,46.848 c0,0.192-0.043,0.341-0.043,0.555c0.064,0.64,6.507,65.301,6.507,80.597c0,18.091-3.797,70.101-6.123,87.957 c-5.333,40.875-10.517,156.032-10.752,161.365c0,17.579,14.251,31.915,33.237,31.893h0.171L128,489.504 c17.664,0,32-14.336,32-31.573c0.107-2.816,2.667-69.12,2.667-90.411c0-12.971,1.429-33.109,2.795-52.587 c1.408-19.861,2.859-40.363,2.859-54.08c0-26.155-7.637-119.872-8.277-127.36c23.232-1.131,44.437-1.941,56.853-1.941 c15.787,0,45.227,1.771,74.88,3.904l-26.837,8.107c-16.853,0.939-30.272,14.891-30.272,32.171c0,0.021,0.661,33.877,0.661,55.125 c0,13.824,1.963,35.093,4.032,57.643c1.963,21.056,3.968,42.837,3.968,55.68c0,25.899-8.875,125.035-9.003,126.997 c0,17.621,14.336,31.979,32.576,31.979c0.021,0,0.021,0,0.043,0l63.723-3.648c17.643,0,32-14.357,32-31.851 c0,0,0.789-66.432,0.789-82.453c0-9.28,0.789-32.704,1.6-56.149c0.811-23.723,1.621-47.467,1.621-56.853 c0-39.979,0.341-117.291,0.341-117.333c0-4.949-1.216-9.579-3.243-13.76c10.219,0.875,16.853,1.451,17.152,1.472 c0.32,0.021,0.619,0.043,0.939,0.043C409.493,142.624,426.667,122.528,426.667,90.187z M144.192,313.419 c-1.408,19.861-2.859,40.363-2.859,54.08c0,20.885-2.645,88.896-2.667,90.005c0,5.888-4.779,10.667-12.075,10.773l-73.259,9.899 c-5.888,0-10.667-4.8-10.688-10.176c0.043-1.195,5.376-119.125,10.581-159.104c2.432-18.645,6.315-71.488,6.315-90.709 c0-14.4-4.907-65.515-6.229-78.613c11.819-0.747,48.491-3.029,85.44-4.992c0.811,9.899,8.235,101.611,8.235,126.251 C146.987,273.803,145.557,293.963,144.192,313.419z M345.344,272.181c0,9.28-0.789,32.704-1.6,56.149 c-0.811,23.723-1.621,47.467-1.621,56.853c0,15.979-0.789,82.197-0.789,82.325c0,5.867-4.779,10.667-11.285,10.688l-63.723,3.648 c-5.888,0-10.667-4.8-10.709-9.707c0.363-4.117,9.045-101.12,9.045-127.957c0-13.824-1.963-35.093-4.032-57.643 c-1.963-21.056-3.968-42.837-3.968-55.68c0-21.355-0.661-55.339-0.661-55.339c0-5.888,4.779-10.667,10.688-10.688 c1.045,0,2.091-0.128,3.093-0.448l66.56-20.117c5.248,0.64,9.344,5.141,9.344,10.539 C345.685,154.805,345.344,232.181,345.344,272.181z M405.333,90.187c0,14.08-4.011,30.848-23.04,31.104 c-9.856-0.875-126.165-11.072-165.397-11.072c-38.912,0-156.928,7.531-167.488,8.235c-0.469,0.043-0.768,0.064-0.96,0.064 c-17.237,0-27.115-10.325-27.115-28.331V79.072c0-17.643,14.357-32,33.003-32.021c1.152-0.107,114.027-10.816,152.896-12.885 c39.787-2.091,164.992-3.968,166.101-3.989c17.643,0,32,14.357,32,32V90.187z"/> </g> </g> </g> </g>
</svg>