<!DOCTYPE svg PUBLIC "-//W3C//DTD SVG 1.1//EN" "http://www.w3.org/Graphics/SVG/1.1/DTD/svg11.dtd">
<!-- Uploaded to: SVG Repo, www.svgrepo.com, Transformed by: SVG Repo Mixer Tools -->
<svg fill="#ffffff" version="1.1" id="Capa_1" xmlns="http://www.w3.org/2000/svg" xmlns:xlink="http://www.w3.org/1999/xlink" width="800px" height="800px" viewBox="0 0 178.064 178.064" xml:space="preserve" stroke="#ffffff">
<g id="SVGRepo_bgCarrier" stroke-width="0"/>
<g id="SVGRepo_tracerCarrier" stroke-linecap="round" stroke-linejoin="round"/>
<g id="SVGRepo_iconCarrier"> <g> <g> <path d="M173.033,68.074c0.719,0.18,1.388-0.161,1.741-0.916c0.341-0.749,0.329-1.784-0.091-2.701 c-0.098-0.162-0.433-1.017-1.17-2.07c-0.755-1.047-1.814-2.314-3.093-3.355c-1.754-1.434-4.348-2.811-7.41-1.888l-0.152-0.356 c-0.329-1.616-0.896-3.261-1.632-4.789c-0.694-1.495-1.438-2.369-1.663-2.606c-0.231-0.262-0.511-0.447-0.791-0.6 c0,0-1.108-1.809-2.204-3.61c-0.536-0.923-1.163-1.775-1.65-2.412c-0.444-0.63-0.779-1.053-0.779-1.053s-1.133-1.51-2.247-3.011 c-0.566-0.773-1.176-1.467-1.675-1.985c-0.475-0.53-0.791-0.877-0.791-0.877c0.024-0.046,0.061-0.076,0.072-0.119 c0.256-0.636,0.128-1.461-0.365-2.146c-0.012-0.012-0.17-0.243-0.475-0.624c-0.305-0.377-0.755-0.904-1.34-1.477 c-1.193-1.142-3.093-2.433-5.407-3.361c0.231-0.679,0.39-1.333,0.5-1.921c0.383-1.738,0.548-2.832,2.24-3.511 c0.676-0.268,1.023-0.94,0.877-1.774c-0.128-0.825-0.804-1.599-1.687-2.07c-0.329-0.158-3.301-1.724-6.589-1.946 c-2.283-0.088-5.279,0.442-7.148,2.917l-0.335-0.197c-0.603-0.588-1.224-1.148-1.906-1.666c-0.688-0.493-1.437-0.904-2.204-1.278 c-1.485-0.716-2.582-1.041-2.886-1.124c-0.354-0.085-0.67-0.097-0.975-0.061c0.092-0.213-7.903-3.051-7.903-3.051 s-0.427-0.167-1.121-0.377c-0.682-0.183-1.602-0.42-2.509-0.664c-1.826-0.466-3.653-0.935-3.653-0.935 c-0.012-0.043,0-0.088-0.012-0.131c-0.158-0.661-0.768-1.321-1.559-1.547c-0.024-0.012-0.28-0.091-0.756-0.198 c-0.45-0.113-1.145-0.238-1.96-0.332c-0.811-0.106-1.784-0.162-2.868-0.137c-1.072,0.04-2.247,0.131-3.471,0.53 c-0.207-0.673-0.476-1.264-0.719-1.803c-0.73-1.589-1.218-2.554-0.256-4.131c0.384-0.652,0.28-1.379-0.354-1.949 c-0.597-0.56-1.583-0.858-2.569-0.733c-0.171,0.024-1.096,0.143-2.323,0.459c-1.211,0.301-2.73,1.005-4.109,1.891 c-1.909,1.232-4.004,3.361-4.065,6.46l-0.387,0.024c-1.647-0.225-3.361-0.137-5.057,0.101c-1.635,0.256-2.719,0.621-2.993,0.722 c-0.344,0.112-0.6,0.319-0.832,0.551c0,0-8.217,2.019-8.174,2.192c0,0-1.775,0.648-3.553,1.291 c-0.88,0.332-1.75,0.654-2.426,0.904c-0.341,0.125-0.609,0.231-0.792,0.332c-0.192,0.085-0.292,0.137-0.292,0.137 c-0.037-0.03-0.061-0.07-0.088-0.101c-0.523-0.429-1.352-0.536-2.144-0.28c-0.03,0.006-0.298,0.095-0.73,0.274 c-0.448,0.173-1.084,0.45-1.814,0.85c-0.728,0.398-1.583,0.883-2.445,1.549c-0.822,0.712-1.675,1.553-2.454,2.533 c-0.6-0.411-1.16-0.749-1.684-1.042c-1.535-0.874-2.497-1.379-2.646-3.212c-0.048-0.733-0.584-1.264-1.428-1.376 c-0.816-0.113-1.802,0.21-2.542,0.886c-0.256,0.256-2.606,2.691-3.824,5.736c-0.88,2.024-1.203,5.124,0.563,7.669l-0.295,0.262 c-1.446,0.792-2.874,1.775-4.089,2.957c-1.124,1.203-1.742,2.167-1.915,2.436c-0.18,0.298-0.292,0.612-0.344,0.917 c0,0-0.353,0.387-0.889,0.98c-0.512,0.605-1.279,1.34-1.903,2.201c-1.278,1.689-2.539,3.373-2.539,3.373s-0.28,0.381-0.697,0.941 c-0.411,0.572-0.999,1.315-1.458,2.125c-0.986,1.61-1.97,3.224-1.97,3.224c-0.052-0.006-0.088-0.024-0.131-0.03 c-0.676-0.049-1.428,0.335-1.952,0.993c0,0.018-0.183,0.234-0.45,0.639c-0.292,0.39-0.585,1.005-0.929,1.766 c-0.661,1.516-1.41,3.684-1.617,6.162c-0.697-0.006-1.352,0.067-1.937,0.128c-1.729,0.207-2.789,0.39-4.016-1.035 c-0.487-0.572-1.212-0.679-1.945-0.274c-0.719,0.408-1.291,1.261-1.486,2.247c-0.024,0.18-0.186,1.102-0.256,2.368 c-0.024,0.643-0.061,1.352,0.012,2.119c0.106,0.779,0.244,1.599,0.463,2.396c0.618,2.207,1.988,4.868,4.932,5.885l-0.106,0.387 c-0.816,1.471-1.172,3.154-1.465,4.819c-0.243,1.635-0.219,2.777-0.207,3.088c0.013,0.341,0.107,0.654,0.231,0.935 c0,0-0.061,0.529-0.106,1.315c-0.049,0.792-0.106,1.845-0.149,2.902c-0.107,2.101-0.186,4.207-0.186,4.207s0.091,1.882,0.162,3.76 c0.106,1.885,0.198,3.766,0.198,3.766c-0.049,0.019-0.085,0.03-0.131,0.055c-0.609,0.365-0.978,1.121-0.953,1.949 c0,0.018,0,0.292,0.049,0.773c0.046,0.48,0.119,1.168,0.277,1.973c0.353,1.632,0.84,3.842,2.338,5.924 c-0.582,0.402-1.068,0.847-1.498,1.249c-1.291,1.181-2.058,1.954-3.86,1.517c-0.709-0.178-1.388,0.158-1.732,0.913 c-0.362,0.749-0.338,1.784,0.095,2.703c0.085,0.158,0.429,1.017,1.166,2.07c0.746,1.048,1.814,2.313,3.084,3.361 c1.766,1.425,4.36,2.795,7.407,1.882l0.171,0.365c0.329,1.613,0.886,3.252,1.62,4.786c0.706,1.498,1.44,2.374,1.677,2.606 c0.231,0.262,0.5,0.45,0.78,0.603c0,0,1.117,1.809,2.207,3.616c0.524,0.914,1.16,1.767,1.647,2.406 c0.448,0.639,0.78,1.053,0.78,1.053s1.135,1.51,2.25,3.008c0.554,0.773,1.172,1.468,1.671,1.985 c0.475,0.53,0.779,0.877,0.779,0.877c-0.012,0.049-0.055,0.079-0.07,0.122c-0.256,0.639-0.116,1.461,0.375,2.149 c0.012,0.012,0.17,0.249,0.475,0.627c0.305,0.384,0.743,0.907,1.328,1.474c1.196,1.145,3.105,2.436,5.419,3.367 c-0.231,0.67-0.387,1.328-0.5,1.924c-0.387,1.729-0.548,2.82-2.238,3.508c-0.679,0.268-1.023,0.938-0.88,1.771 c0.131,0.828,0.804,1.602,1.684,2.07c0.332,0.152,3.312,1.729,6.592,1.949c2.286,0.091,5.261-0.438,7.146-2.917l0.341,0.194 c0.588,0.592,1.23,1.151,1.903,1.669c0.679,0.499,1.434,0.907,2.208,1.278c1.477,0.719,2.582,1.042,2.886,1.127 c0.35,0.085,0.648,0.104,0.974,0.061c-0.106,0.213,7.901,3.051,7.901,3.051s0.429,0.164,1.108,0.384 c0.686,0.177,1.608,0.42,2.521,0.657c1.827,0.463,3.654,0.932,3.654,0.932c0.012,0.043,0,0.086,0.012,0.129 c0.161,0.657,0.755,1.32,1.559,1.553c0.012,0.006,0.28,0.091,0.755,0.188c0.453,0.115,1.132,0.237,1.945,0.341 c0.834,0.098,1.812,0.152,2.893,0.134c1.083-0.036,2.244-0.134,3.479-0.53c0.198,0.67,0.466,1.268,0.722,1.803 c0.719,1.59,1.209,2.552,0.244,4.141c-0.387,0.634-0.268,1.37,0.35,1.937c0.609,0.561,1.596,0.858,2.582,0.73 c0.174-0.024,1.096-0.134,2.305-0.45c1.218-0.311,2.73-1.011,4.131-1.9c1.906-1.235,4.001-3.361,4.056-6.46l0.39-0.024 c1.632,0.225,3.361,0.134,5.042-0.104c1.65-0.256,2.722-0.627,3.008-0.719c0.317-0.115,0.585-0.322,0.816-0.542 c0,0,8.22-2.027,8.184-2.204c0,0,1.76-0.646,3.525-1.285c0.907-0.341,1.778-0.657,2.454-0.907 c0.329-0.128,0.609-0.231,0.792-0.335c0.164-0.091,0.292-0.127,0.292-0.127c0.036,0.023,0.049,0.072,0.098,0.097 c0.523,0.433,1.352,0.536,2.144,0.28c0.024-0.006,0.292-0.098,0.73-0.273c0.438-0.171,1.084-0.445,1.814-0.854 c0.719-0.396,1.583-0.883,2.424-1.553c0.834-0.706,1.687-1.54,2.466-2.526c0.572,0.407,1.145,0.749,1.668,1.041 c1.535,0.877,2.509,1.382,2.661,3.222c0.049,0.725,0.585,1.26,1.425,1.369c0.816,0.116,1.803-0.207,2.539-0.883 c0.256-0.256,2.606-2.697,3.824-5.742c0.877-2.021,1.193-5.121-0.572-7.666l0.305-0.262c1.437-0.791,2.874-1.771,4.079-2.953 c1.133-1.205,1.735-2.174,1.925-2.441c0.17-0.305,0.28-0.615,0.347-0.914c0,0,0.354-0.39,0.89-0.98 c0.511-0.603,1.266-1.339,1.899-2.204c1.278-1.687,2.539-3.373,2.539-3.373s0.286-0.384,0.688-0.938 c0.407-0.573,1.011-1.31,1.467-2.126c0.986-1.613,1.961-3.227,1.961-3.227c0.043,0.006,0.098,0.024,0.134,0.03 c0.688,0.062,1.438-0.341,1.949-0.986c0.012-0.024,0.194-0.237,0.462-0.651c0.293-0.384,0.585-0.999,0.932-1.76 c0.658-1.517,1.407-3.684,1.608-6.156c0.706,0.006,1.357-0.073,1.942-0.134c1.723-0.201,2.788-0.384,4.019,1.035 c0.475,0.578,1.218,0.688,1.942,0.28c0.719-0.402,1.291-1.261,1.474-2.247c0.036-0.177,0.201-1.097,0.268-2.369 c0.024-0.646,0.049-1.357-0.018-2.119c-0.098-0.772-0.238-1.595-0.47-2.399c-0.603-2.21-1.99-4.865-4.92-5.882l0.11-0.384 c0.815-1.467,1.169-3.154,1.461-4.816c0.243-1.638,0.22-2.764,0.207-3.087c-0.012-0.347-0.115-0.651-0.231-0.932 c0,0,0.061-0.53,0.109-1.315c0.037-0.791,0.098-1.839,0.146-2.901c0.109-2.101,0.188-4.21,0.188-4.21s-0.091-1.875-0.164-3.76 c-0.116-1.881-0.201-3.76-0.201-3.76c0.043-0.019,0.092-0.024,0.128-0.055c0.615-0.362,0.986-1.118,0.962-1.946 c-0.012-0.018-0.012-0.298-0.061-0.779c-0.036-0.481-0.109-1.16-0.268-1.976c-0.354-1.629-0.841-3.842-2.339-5.925 c0.585-0.405,1.065-0.846,1.486-1.245C170.464,68.397,171.23,67.624,173.033,68.074z M109.061,36.992 c0.901-1.741,2.399-3.117,4.116-3.693c1.699-0.542,3.678-0.417,5.468,0.435c0.28,0.131,0.548,0.32,0.804,0.524 c1.912,1.522,3.105,3.431,3.246,5.596l0.049,0.953l2.368-3.379l-0.311-0.207c-0.164-0.119-0.292-0.204-0.42-0.298 c-0.615-0.399-1.863-1.142-2.722-2.563c-0.865-1.422-1.389-3.535-0.652-6.54c0.141-0.637,0.408-1.197,0.646-1.702 c0.707-1.623,1.705-3.392-0.407-8.418c-0.183-0.43-0.135-0.893,0.164-1.179c0.311-0.298,0.804-0.398,1.315-0.268 c0.28,0.073,1.291,0.368,2.686,1.041c1.723,0.785,3.257,2.04,4.493,3.404l0.39,0.451l0.28-0.402 c0.122-0.167,0.244-0.304,0.378-0.459c1.766-2.208,4.506-2.719,6.588-2.606c3.032,0.243,5.84,1.678,6.126,1.827 c0.548,0.292,0.938,0.792,1.06,1.285c0.128,0.512-0.098,0.929-0.523,1.114c-1.997,0.874-2.168,2.146-2.521,3.943 c-0.128,0.554-0.268,1.172-0.469,1.809c-0.042,0.143-0.079,0.292-0.134,0.435l-0.146,0.405l0.476,0.174 c0.651,0.231,1.254,0.505,1.826,0.8c1.718,0.908,3.197,1.906,4.031,2.856c0.42,0.454,0.768,0.847,0.986,1.133 c0.201,0.286,0.354,0.45,0.354,0.462c0.268,0.375,0.365,0.822,0.268,1.19c-0.012,0.055-0.012,0.113-0.024,0.155 c-0.158,0.405-0.548,0.643-1.011,0.63c-5.321-0.137-6.612,1.458-7.843,2.719c-0.39,0.411-0.822,0.886-1.346,1.254 c-2.734,1.946-5.029,2.174-6.832,1.663c-0.901-0.256-1.687-0.691-2.411-1.19c-0.743-0.454-1.425-0.935-1.997-1.37l-0.28-0.213 l-2.539,3.343l0.907-0.226c1.035-0.237,2.18-0.332,3.215-0.061c1.035,0.262,2.07,0.746,3.045,1.434 c0.256,0.18,0.512,0.387,0.742,0.603c0.756,0.637,1.267,1.474,1.608,2.363c0.347,0.88,0.511,1.796,0.499,2.706 c-0.013,1.821-0.743,3.562-2.168,4.996c-1.278,1.285-2.838,1.934-4.421,2.189c-1.559,0.229-3.044-0.027-4.104-0.904 c-0.414-0.375-0.779-0.773-1.048-1.242c-0.256-0.487-0.414-1.041-0.45-1.684c-0.062-1.245,0.329-2.618,1.157-3.803 c0.657-0.993,1.649-1.702,2.739-1.97c1.127-0.262,2.253-0.04,3.13,0.56l0.348,0.393c0.256,0.28,0.384,0.654,0.365,1.077 c-0.024,0.536-0.268,1.048-0.658,1.428c-0.383,0.387-0.9,0.612-1.4,0.636c-0.986,0.052-1.918-0.654-1.888-1.702l0.013-0.518 l-0.475,0.28c-0.317,0.195-0.585,0.444-0.805,0.743c-0.548,0.743-0.804,1.602-0.755,2.42c0.024,0.811,0.414,1.37,0.999,1.906 c1.522,1.254,4.263,0.855,5.979-0.94c1.096-1.179,1.632-2.655,1.547-4.135c-0.043-0.734-0.22-1.465-0.548-2.144 c-0.348-0.679-0.908-1.212-1.535-1.684c-1.729-1.172-3.386-1.678-5.139-1.154c-1.718,0.472-3.337,1.732-4.872,3.696l-4.019,5.307 l-4.214,5.557c-0.39,0.523-0.962,0.755-1.284,0.523c-0.317-0.237-0.256-0.88,0.128-1.416l4.013-5.706l3.678-5.261l-0.013-0.013 l0.024-0.033c0.073-0.091,0.128-0.18,0.165-0.229c1.357-2.016,2.112-4.031,1.948-5.693c-0.134-1.702-1.048-3.254-2.691-4.573 c-1.321-0.929-2.941-1.114-4.312-0.758c-1.431,0.369-2.63,1.297-3.422,2.731c-1.175,2.155-0.73,4.932,0.907,6.04 c0.627,0.433,1.395,0.481,2.174,0.286c0.779-0.186,1.504-0.691,2.046-1.434c0.237-0.329,0.408-0.716,0.493-1.121l0.116-0.557 l-0.597,0.237c-0.938,0.268-2.01-0.167-2.253-1.19c-0.135-0.493-0.073-1.035,0.17-1.528c0.237-0.496,0.646-0.883,1.157-1.071 c0.475-0.18,0.998-0.162,1.474,0.069l0.152,0.062c0.974,0.654,1.485,1.747,1.595,2.91c0.092,1.154-0.304,2.296-1.035,3.252 c-0.889,1.139-2.039,1.918-3.245,2.204c-1.182,0.25-2.326,0.164-3.264-0.472c-1.145-0.749-1.772-2.208-2.083-3.654 C108.086,40.332,108.257,38.594,109.061,36.992z M73.524,10.334c0.268-0.098,1.251-0.429,2.774-0.661 c1.888-0.255,3.833-0.375,5.635,0.07l0.587,0.137l-0.012-0.487c-0.012-0.207,0.012-0.387,0.024-0.588 c0.131-2.816,2.046-4.768,3.772-5.897c2.605-1.796,5.675-2.113,6.016-2.177c0.627-0.067,1.218,0.112,1.613,0.463 c0.384,0.356,0.469,0.822,0.226,1.221c-1.108,1.842-0.481,3.018,0.286,4.658c0.226,0.505,0.469,1.081,0.664,1.696 c0.061,0.143,0.128,0.274,0.158,0.426l0.122,0.411l0.486-0.165c0.652-0.21,1.304-0.411,1.949-0.472 c1.924-0.249,3.678-0.137,4.932,0.037c0.634,0.094,1.133,0.188,1.479,0.268c0.348,0.095,0.549,0.144,0.561,0.149 c0.427,0.119,0.779,0.423,0.913,0.798c0.013,0.052,0.062,0.1,0.073,0.143c0.116,0.433-0.073,0.85-0.432,1.093 c-4.439,3.13-4.537,5.207-4.793,6.938c-0.061,0.557-0.128,1.178-0.341,1.802c-1.071,3.212-2.752,4.64-4.536,5.225 c-1.76,0.725-3.653,0.658-5.061,0.588l-0.371-0.019l-0.085,4.184l0.597-0.691c0.706-0.798,1.57-1.434,2.558-1.903 c0.998-0.441,2.131-0.779,3.324-0.691c0.305,0.012,0.634,0.042,0.95,0.091c0.968,0.146,1.888,0.476,2.691,0.938 c0.401,0.229,0.767,0.5,1.108,0.798c0.347,0.329,0.651,0.691,0.907,1.078c1.047,1.541,1.442,3.428,1.169,5.383 c-0.28,1.757-1.169,3.285-2.29,4.345c-1.12,1.065-2.441,1.62-3.823,1.689c-1.133,0.006-2.126-0.529-2.917-1.564 c-0.798-0.98-1.291-2.214-1.346-3.672c-0.024-1.193,0.341-2.356,1.09-3.27c0.749-0.953,1.784-1.339,2.844-1.339l0.499,0.137 c0.39,0.113,0.706,0.344,0.92,0.667c0.292,0.438,0.39,0.98,0.311,1.528c-0.092,0.536-0.372,1.023-0.755,1.367 c-0.792,0.673-1.943,0.518-2.516-0.362l-0.298-0.438l-0.213,0.499c-0.141,0.338-0.201,0.694-0.201,1.072 c0,0.919,0.292,1.791,0.804,2.451c0.499,0.643,1.139,0.986,1.93,1.005c1.991-0.101,3.922-1.803,4.275-4.314 c0.2-1.589-0.22-3.206-1.157-4.308c-0.926-1.093-2.362-1.796-3.952-1.833c-0.523-0.006-1.005,0.012-1.467,0.098 c-0.451,0.118-0.908,0.265-1.315,0.457c-0.816,0.386-1.486,0.917-2.059,1.601c-1.108,1.361-1.675,3.301-1.757,5.8l-0.131,6.64 l-0.131,6.966c-0.024,0.648-0.362,1.166-0.742,1.133c-0.387,0.027-0.716-0.478-0.74-1.133l-0.131-6.966l-0.134-6.421h-0.013v-0.04 c0-0.118,0-0.222,0-0.28c-0.085-2.463-0.648-4.375-1.757-5.724c-0.569-0.667-1.242-1.196-2.058-1.583 c-0.405-0.186-0.862-0.344-1.315-0.457c-0.475-0.079-0.959-0.097-1.471-0.091c-1.623,0.037-3.038,0.746-3.973,1.833 c-0.917,1.12-1.346,2.73-1.154,4.308c0.362,2.512,2.256,4.22,4.284,4.309c0.755,0.006,1.422-0.351,1.933-0.999 c0.512-0.654,0.804-1.525,0.804-2.451c0-0.417-0.094-0.828-0.255-1.19l-0.225-0.49l-0.341,0.573 c-0.606,0.886-1.726,1.041-2.533,0.362c-0.386-0.338-0.661-0.825-0.767-1.361c-0.091-0.548,0.015-1.09,0.326-1.525 c0.28-0.414,0.709-0.694,1.233-0.773l0.165-0.039c1.172-0.019,2.208,0.35,2.987,1.327c0.74,0.913,1.114,2.07,1.078,3.264 c-0.043,1.452-0.536,2.691-1.334,3.672c-0.804,1.035-1.784,1.589-2.926,1.565c-1.41-0.067-2.725-0.625-3.815-1.684 c-1.111-1.06-2.009-2.588-2.29-4.345c-0.304-1.955,0.131-3.848,1.172-5.389c0.256-0.387,0.548-0.749,0.904-1.077 c0.332-0.299,0.694-0.569,1.111-0.804c0.792-0.462,1.689-0.792,2.691-0.938c0.307-0.042,0.624-0.073,0.95-0.085 c1.203-0.088,2.338,0.256,3.349,0.709c0.996,0.462,1.864,1.118,2.567,1.933l0.6,0.707l-0.076-4.128l-0.381,0.036 c-0.204,0.019-0.377,0.031-0.523,0.043c-0.728,0.04-2.192,0.119-3.727-0.578c-1.51-0.686-3.169-1.885-4.348-4.82 c-0.244-0.606-0.387-1.224-0.472-1.778c-0.387-1.714-0.649-3.754-5.325-6.635c-0.387-0.219-0.612-0.618-0.539-1.041 C72.693,10.916,73.037,10.511,73.524,10.334z M30.264,34.56c0.143-0.237,0.728-1.123,1.775-2.253 c1.367-1.309,2.993-2.405,4.652-3.185l0.536-0.256l-0.292-0.387c-0.131-0.161-0.231-0.332-0.344-0.493 c-0.779-1.184-1.096-2.469-1.136-3.708c0-1.206,0.332-2.338,0.707-3.288c1.16-2.856,3.31-5.137,3.565-5.355 c0.463-0.405,1.075-0.618,1.599-0.548c0.523,0.066,0.865,0.398,0.91,0.858c0.155,2.128,1.376,2.731,2.975,3.623 c0.484,0.274,1.035,0.605,1.583,0.98c0.125,0.101,0.231,0.161,0.369,0.268l0.341,0.268l0.32-0.411 c0.411-0.56,0.853-1.059,1.303-1.528c1.327-1.464,2.874-2.302,3.994-2.886c0.576-0.292,1.035-0.499,1.379-0.63 c0.344-0.131,0.536-0.198,0.548-0.198c0.411-0.14,0.904-0.101,1.206,0.091c0.061,0.031,0.11,0.049,0.131,0.083 c0.341,0.28,0.436,0.709,0.292,1.153c-1.766,5.106-0.636,6.802,0.192,8.367c0.268,0.494,0.575,1.047,0.767,1.671 c1.946,6.317-1.958,8.717-4.357,10.324l-0.28,0.213l2.399,3.429l0.049-0.941c0.17-2.149,1.379-4.028,3.249-5.535 c0.244-0.195,0.5-0.386,0.807-0.511c1.775-0.868,3.766-0.993,5.468-0.451c1.714,0.576,3.203,1.945,4.101,3.687 c0.819,1.595,0.974,3.34,0.694,4.832c-0.308,1.446-0.95,2.905-2.098,3.654c-0.922,0.624-2.067,0.722-3.248,0.472 c-1.203-0.298-2.375-1.078-3.249-2.21c-0.715-0.95-1.12-2.091-1.035-3.251c0.101-1.139,0.625-2.226,1.474-2.834l0.487-0.17 c0.365-0.125,0.779-0.113,1.157,0.033c0.5,0.192,0.911,0.566,1.175,1.065c0.241,0.493,0.317,1.042,0.162,1.541 c-0.238,0.995-1.309,1.452-2.232,1.184l-0.463-0.149l0.125,0.536c0.088,0.369,0.231,0.697,0.448,0.999 c0.551,0.74,1.279,1.245,2.058,1.431c0.767,0.189,1.485,0.152,2.158-0.28c1.647-1.114,2.07-3.891,0.904-6.052 c-0.779-1.435-2.009-2.363-3.425-2.725c-1.4-0.35-3.005-0.155-4.296,0.761c-1.644,1.303-2.536,2.862-2.667,4.582 c-0.131,1.689,0.636,3.708,2.006,5.748l3.812,5.45L67,57.33c0.38,0.536,0.438,1.172,0.125,1.416c-0.305,0.237-0.892,0-1.279-0.524 l-4.202-5.556l-3.885-5.118v0.006l-0.024-0.033c-0.076-0.091-0.131-0.18-0.167-0.229c-1.51-1.933-3.118-3.175-4.819-3.635 c-1.742-0.518-3.413,0.006-5.14,1.172c-0.648,0.472-1.215,1.011-1.534,1.689c-0.341,0.679-0.524,1.416-0.561,2.156 c-0.076,1.474,0.46,2.95,1.559,4.117c1.726,1.796,4.469,2.207,5.967,0.946c0.572-0.511,0.971-1.09,1.011-1.918 c0.049-0.812-0.219-1.678-0.755-2.414c-0.244-0.344-0.56-0.624-0.91-0.816l-0.481-0.273l0.052,0.654 c0.037,1.041-0.91,1.745-1.891,1.72c-0.499-0.024-0.999-0.244-1.397-0.63c-0.398-0.387-0.648-0.898-0.661-1.434 c-0.055-0.536,0.137-1.005,0.548-1.352l0.131-0.131c0.968-0.682,2.095-0.911,3.236-0.649c1.124,0.253,2.083,0.972,2.755,1.958 c0.819,1.19,1.2,2.561,1.142,3.809c-0.042,0.643-0.167,1.203-0.436,1.684c-0.268,0.481-0.642,0.874-1.059,1.242 c-1.06,0.877-2.527,1.133-4.086,0.901c-1.583-0.256-3.13-0.901-4.421-2.18c-1.428-1.434-2.162-3.182-2.174-5.002 c-0.015-0.911,0.149-1.827,0.496-2.707c0.332-0.889,0.844-1.727,1.599-2.362c0.229-0.207,0.472-0.405,0.752-0.597 c0.98-0.707,2.028-1.193,3.075-1.456c1.035-0.255,2.207-0.161,3.249,0.095l0.91,0.231l-2.475-3.285l-0.292,0.229 c-0.143,0.131-0.28,0.225-0.387,0.332c-0.292,0.219-0.73,0.548-1.303,0.852c-0.561,0.326-1.203,0.694-2.01,0.898 c-1.583,0.399-3.727,0.283-6.427-1.388c-0.561-0.351-1.023-0.786-1.434-1.16c-0.648-0.606-1.355-1.255-2.539-1.729 c-1.172-0.447-2.85-0.716-5.562-0.436c-0.448,0.052-0.865-0.149-1.06-0.536C29.944,35.519,29.993,35.001,30.264,34.56z M9.649,76.69c0.304-1.885,0.804-3.766,1.802-5.331l0.305-0.523l-0.463-0.131c-0.18-0.064-0.365-0.137-0.548-0.207 c-2.643-0.989-3.922-3.422-4.47-5.435c-0.463-1.517-0.499-3.039-0.423-4.223c0.073-1.179,0.216-2.04,0.241-2.208 c0.131-0.612,0.475-1.148,0.926-1.404c0.447-0.262,0.922-0.191,1.227,0.155c1.416,1.635,2.731,1.41,4.509,1.182 c0.548-0.076,1.172-0.134,1.827-0.134c0.143-0.006,0.292-0.013,0.447-0.013l0.423,0.019l-0.012-0.53 c0.04-0.679,0.125-1.328,0.231-1.964c0.344-1.918,0.962-3.559,1.51-4.707c0.268-0.573,0.511-1.029,0.715-1.322 c0.207-0.286,0.344-0.454,0.356-0.462c0.28-0.359,0.667-0.585,1.071-0.615c0.064-0.006,0.113-0.021,0.144-0.016 c0.438,0.028,0.779,0.314,0.91,0.749c0.67,2.552,1.623,4.022,2.509,4.951c0.877,0.932,1.726,1.331,2.53,1.705 c0.512,0.228,1.087,0.502,1.611,0.895c2.731,2.016,3.577,4.08,3.614,5.943c0.015,0.469-0.037,0.916-0.097,1.36 c-0.064,0.46-0.131,0.911-0.219,1.334c-0.195,0.855-0.475,1.641-0.719,2.308l-0.131,0.335l3.961,1.367l-0.475-0.779 c-1.096-1.827-1.482-4.147-0.648-6.385c0.119-0.302,0.231-0.594,0.375-0.886c0.417-0.893,1.011-1.672,1.69-2.296 c0.755-0.578,1.595-1.011,2.469-1.279c1.766-0.524,3.681-0.353,5.431,0.536c1.596,0.813,2.762,2.146,3.462,3.544 c0.703,1.422,0.816,2.832,0.387,4.153c-0.332,1.083-1.124,1.869-2.326,2.313c-0.612,0.21-1.254,0.335-1.945,0.347 c-0.648,0.024-1.343-0.055-2.021-0.25c-1.136-0.335-2.171-1.06-2.75-2.031c-0.584-0.974-0.691-2.116-0.38-3.112l0.28-0.444 c0.207-0.323,0.536-0.566,0.911-0.673c0.499-0.143,1.047-0.088,1.534,0.167c0.487,0.255,0.868,0.667,1.072,1.16 c0.399,0.969-0.079,2.016-1.072,2.308l-0.499,0.143l0.387,0.356c0.28,0.25,0.612,0.423,0.962,0.542 c0.865,0.286,1.775,0.273,2.554-0.013c0.755-0.286,1.254-0.785,1.51-1.54c0.244-0.993,0.231-1.982-0.28-2.975 c-0.487-0.972-1.327-1.87-2.463-2.412c-1.458-0.688-3.057-0.749-4.473-0.237c-1.428,0.484-2.436,1.69-2.975,3.178 c-0.316,0.993-0.484,1.909-0.377,2.801c0.131,0.892,0.417,1.714,0.911,2.457c0.953,1.483,2.643,2.625,4.98,3.477l6.284,2.183 l6.598,2.271c0.63,0.21,1.011,0.685,0.874,1.047c-0.149,0.356-0.743,0.506-1.373,0.323l-6.653-2.025l-6.141-1.873v0.021 l-0.034-0.021c-0.116-0.03-0.198-0.066-0.268-0.085c-2.363-0.667-4.351-0.725-5.968-0.076c-0.804,0.316-1.501,0.81-2.119,1.474 c-0.584,0.657-1.172,1.471-1.409,2.472c-0.441,1.546-0.186,3.124,0.569,4.348c0.709,1.215,2.155,2.101,3.727,2.405 c1.23,0.231,2.444,0,3.373-0.502c0.95-0.512,1.766-1.272,2.058-2.234c0.219-0.722,0.095-1.453-0.386-2.15 c-0.472-0.697-1.209-1.236-2.07-1.51c-0.387-0.131-0.804-0.173-1.209-0.131l-0.566,0.07l0.436,0.512 c0.661,0.834,0.487,1.97-0.393,2.518c-0.436,0.274-0.975,0.387-1.522,0.311c-0.548-0.073-1.035-0.347-1.37-0.764 c-0.32-0.387-0.444-0.898-0.368-1.422v-0.176c0.161-0.561,0.417-1.066,0.779-1.477c0.387-0.399,0.88-0.718,1.428-0.935 c1.084-0.438,2.292-0.426,3.422-0.024c1.361,0.478,2.457,1.346,3.081,2.393c0.697,1.06,0.953,2.183,0.618,3.249 c-0.219,0.661-0.605,1.254-1.117,1.778c-0.441,0.53-1.011,0.99-1.689,1.358c-1.34,0.73-3.054,1.123-4.813,0.843 c-1.946-0.325-3.629-1.303-4.808-2.776c-1.129-1.446-1.51-3.361-1.227-5.325c0.055-0.311,0.116-0.624,0.192-0.935 c0.767-2.295,2.387-3.991,4.326-4.819l0.862-0.351l-3.967-1.202l-0.073,0.374c-0.037,0.186-0.083,0.348-0.119,0.512 c-0.375,1.434-1.477,5.505-7.621,6.022c-0.649,0.049-1.279-0.019-1.839-0.092c-1.744-0.158-3.748-0.557-7.925,3.012 c-0.356,0.311-0.804,0.386-1.178,0.186c-0.369-0.186-0.612-0.637-0.648-1.166C9.423,79.267,9.411,78.219,9.649,76.69z M27.295,119.786c-0.499,0.414-1.047,0.725-1.534,0.999c-0.779,0.438-1.595,0.896-2.427,1.899 c-0.804,0.993-1.702,2.564-2.195,5.176c-0.098,0.445-0.399,0.773-0.828,0.841s-0.911-0.134-1.254-0.53 c-0.113-0.115-0.317-0.371-0.624-0.748c-0.268-0.414-0.585-0.975-0.911-1.669c-0.828-1.698-1.428-3.587-1.689-5.383 c0,0-0.085-0.591-0.073-0.597l-0.451,0.164c-0.18,0.067-0.387,0.109-0.572,0.146c-2.731,0.749-5.139-0.487-6.734-1.803 c-1.19-0.98-2.208-2.174-2.898-3.142c-0.649-0.999-0.999-1.784-1.072-1.942c-0.244-0.566-0.268-1.206-0.052-1.687 c0.219-0.481,0.648-0.7,1.087-0.603c2.107,0.486,3.029-0.457,4.356-1.688c0.411-0.39,0.892-0.804,1.428-1.193 c0.131-0.092,0.231-0.177,0.38-0.268l0.356-0.238l-0.314-0.414c-0.411-0.565-0.752-1.145-1.071-1.698 c-0.853-1.754-1.239-3.465-1.458-4.701c-0.113-0.633-0.155-1.145-0.183-1.504c-0.024-0.353-0.037-0.56-0.037-0.572 c0-0.45,0.167-0.877,0.451-1.133c0.037-0.03,0.073-0.073,0.125-0.104c0.366-0.231,0.804-0.194,1.179,0.085 c4.356,3.246,6.32,2.704,8.062,2.412c0.561-0.116,1.179-0.226,1.827-0.226c3.397,0.036,5.2,1.218,6.366,2.697 c1.227,1.456,1.702,3.276,2.083,4.677l0.088,0.335l4.006-1.212l-0.828-0.359c-1.927-0.84-3.529-2.509-4.29-4.798 c-0.088-0.299-0.144-0.621-0.195-0.926c-0.28-1.961,0.113-3.872,1.23-5.328c1.16-1.471,2.831-2.463,4.789-2.773 c1.775-0.274,3.498,0.112,4.832,0.847c0.667,0.374,1.227,0.831,1.69,1.36c0.511,0.524,0.91,1.12,1.111,1.778 c0.347,1.078,0.104,2.192-0.612,3.246c-0.642,1.047-1.726,1.918-3.069,2.398c-1.142,0.396-2.35,0.408-3.434-0.018 c-0.557-0.22-1.035-0.53-1.428-0.914c-0.356-0.39-0.612-0.871-0.755-1.376l-0.012-0.523c-0.012-0.39,0.125-0.773,0.368-1.091 c0.341-0.414,0.816-0.682,1.364-0.761c0.548-0.085,1.099,0.036,1.534,0.311c0.88,0.542,1.06,1.687,0.387,2.503l-0.332,0.42 l0.551,0.043c0.381,0.03,0.752-0.013,1.096-0.128c0.855-0.274,1.595-0.816,2.07-1.511c0.463-0.676,0.624-1.382,0.387-2.143 c-0.292-0.956-1.108-1.724-2.058-2.235c-0.935-0.505-2.144-0.736-3.386-0.499c-1.571,0.299-2.993,1.188-3.714,2.43 c-0.755,1.218-0.999,2.795-0.563,4.305c0.231,1.005,0.819,1.814,1.403,2.473c0.612,0.651,1.328,1.156,2.131,1.461 c1.635,0.652,3.641,0.578,6.043-0.104l6.366-1.948l6.659-2.016c0.624-0.188,1.178-0.036,1.354,0.329 c0.143,0.359-0.244,0.834-0.868,1.041l-6.591,2.271l-6.092,2.101v0.013l-0.037,0.018c-0.113,0.03-0.207,0.073-0.268,0.092 c-2.301,0.84-3.961,1.973-4.908,3.458c-0.46,0.737-0.779,1.56-0.904,2.46c-0.112,0.896,0.088,1.809,0.399,2.801 c0.536,1.517,1.522,2.729,2.975,3.203c1.403,0.5,2.993,0.427,4.445-0.256c1.136-0.541,1.985-1.424,2.463-2.411 c0.511-0.986,0.523-1.973,0.295-2.972c-0.219-0.725-0.743-1.248-1.522-1.546c-0.767-0.286-1.69-0.299-2.545-0.013 c-0.387,0.135-0.767,0.342-1.06,0.621l-0.386,0.378l0.648,0.152c0.999,0.292,1.485,1.339,1.071,2.319 c-0.204,0.481-0.572,0.901-1.06,1.157c-0.499,0.256-1.035,0.323-1.534,0.165c-0.484-0.135-0.877-0.47-1.096-0.944l-0.1-0.14 c-0.387-1.133-0.268-2.26,0.332-3.252c0.572-0.975,1.62-1.687,2.75-2.034c0.667-0.188,1.367-0.273,2.006-0.249 c0.694,0.012,1.354,0.134,1.945,0.359c1.2,0.432,2.009,1.211,2.326,2.313c0.42,1.315,0.338,2.728-0.387,4.153 c-0.673,1.394-1.863,2.728-3.447,3.531c-1.766,0.889-3.687,1.065-5.443,0.535c-0.886-0.268-1.708-0.688-2.469-1.278 c-0.661-0.633-1.254-1.406-1.69-2.283c-0.131-0.286-0.255-0.585-0.374-0.896c-0.862-2.259-0.442-4.609,0.66-6.436l0.5-0.792 l-3.885,1.34l0.137,0.353c0.076,0.177,0.131,0.336,0.188,0.487c0.268,0.664,0.715,2.052,0.591,3.708 C30.449,115.749,29.7,117.734,27.295,119.786z M69.076,141.08c-0.904,1.735-2.387,3.118-4.102,3.69 c-1.702,0.548-3.693,0.414-5.468-0.433c-0.295-0.128-0.551-0.322-0.807-0.523c-1.912-1.522-3.103-3.429-3.249-5.59l-0.048-0.968 l-2.363,3.385l0.305,0.201c0.155,0.122,0.292,0.201,0.423,0.299c0.612,0.401,1.854,1.145,2.719,2.563 c0.868,1.425,1.392,3.531,0.655,6.54c-0.155,0.639-0.411,1.193-0.655,1.698c-0.679,1.626-1.689,3.392,0.438,8.428 c0.18,0.42,0.113,0.889-0.195,1.169c-0.292,0.299-0.804,0.396-1.303,0.273c-0.28-0.078-1.291-0.377-2.667-1.047 c-1.741-0.779-3.276-2.033-4.497-3.404l-0.399-0.444l-0.28,0.396c-0.112,0.165-0.243,0.305-0.368,0.457 c-1.766,2.205-4.509,2.723-6.579,2.606c-3.042-0.243-5.849-1.681-6.135-1.827c-0.548-0.292-0.947-0.791-1.06-1.284 c-0.113-0.512,0.1-0.926,0.523-1.114c2.006-0.877,2.171-2.15,2.533-3.946c0.109-0.554,0.252-1.169,0.459-1.809 c0.049-0.14,0.088-0.286,0.131-0.433l0.131-0.401l-0.487-0.164c-0.648-0.237-1.227-0.512-1.814-0.798 c-1.714-0.914-3.191-1.918-4.022-2.868c-0.436-0.444-0.767-0.847-0.996-1.133c-0.207-0.286-0.344-0.45-0.344-0.462 c-0.268-0.378-0.356-0.822-0.28-1.188c0.024-0.055,0.024-0.116,0.036-0.152c0.171-0.402,0.548-0.64,0.999-0.634 c5.343,0.134,6.616-1.455,7.855-2.722c0.38-0.408,0.819-0.889,1.342-1.254c2.731-1.943,5.005-2.174,6.808-1.663 c0.91,0.263,1.702,0.688,2.438,1.188c0.728,0.45,1.428,0.932,1.982,1.37l0.292,0.213l2.521-3.336l-0.911,0.225 c-1.035,0.237-2.189,0.335-3.224,0.061c-1.035-0.262-2.07-0.742-3.042-1.431c-0.256-0.177-0.505-0.384-0.737-0.603 c-0.767-0.64-1.279-1.474-1.617-2.363c-0.341-0.883-0.508-1.796-0.49-2.709c0.012-1.814,0.734-3.562,2.168-4.999 c1.279-1.279,2.837-1.937,4.42-2.192c1.559-0.226,3.045,0.03,4.104,0.907c0.405,0.378,0.779,0.773,1.047,1.248 c0.255,0.476,0.393,1.035,0.429,1.681c0.082,1.242-0.317,2.619-1.133,3.806c-0.682,0.993-1.653,1.699-2.764,1.955 c-1.108,0.268-2.232,0.049-3.13-0.548l-0.329-0.396c-0.255-0.279-0.393-0.651-0.375-1.071c0.037-0.542,0.28-1.054,0.661-1.431 c0.393-0.391,0.91-0.615,1.409-0.64c0.99-0.055,1.912,0.657,1.888,1.698l-0.012,0.518l0.475-0.279 c0.316-0.189,0.584-0.438,0.804-0.743c0.536-0.737,0.804-1.602,0.755-2.417c-0.042-0.816-0.417-1.37-0.999-1.912 c-1.522-1.255-4.259-0.859-5.979,0.938c-1.096,1.176-1.638,2.661-1.559,4.135c0.037,0.73,0.231,1.461,0.56,2.143 c0.326,0.683,0.898,1.213,1.522,1.688c1.72,1.175,3.385,1.681,5.151,1.156c1.708-0.469,3.328-1.729,4.874-3.695l4.016-5.311 l4.21-5.559c0.393-0.518,0.965-0.756,1.291-0.518c0.305,0.23,0.234,0.877-0.131,1.412l-3.998,5.706l-3.687,5.267v0.006 l-0.012,0.037c-0.073,0.092-0.131,0.177-0.161,0.225c-1.352,2.016-2.107,4.02-1.952,5.693c0.131,1.699,1.047,3.258,2.688,4.573 c1.315,0.926,2.923,1.114,4.314,0.762c1.422-0.378,2.63-1.304,3.422-2.734c1.166-2.155,0.73-4.933-0.911-6.04 c-0.63-0.433-1.395-0.481-2.189-0.287c-0.764,0.189-1.489,0.695-2.037,1.432c-0.243,0.335-0.405,0.713-0.499,1.12l-0.119,0.561 l0.618-0.237c0.929-0.269,2,0.164,2.244,1.188c0.131,0.492,0.082,1.041-0.161,1.527c-0.244,0.494-0.649,0.89-1.167,1.072 c-0.475,0.177-0.999,0.158-1.47-0.073l-0.165-0.061c-0.965-0.651-1.477-1.748-1.583-2.905c-0.095-1.168,0.304-2.301,1.035-3.251 c0.886-1.139,2.046-1.918,3.249-2.204c1.172-0.25,2.326-0.164,3.249,0.469c1.166,0.749,1.79,2.204,2.095,3.653 C70.062,137.737,69.895,139.479,69.076,141.08z M104.628,167.732c-0.269,0.104-1.255,0.427-2.777,0.657 c-1.888,0.256-3.848,0.385-5.639-0.072l-0.584-0.135l0.012,0.488c0.013,0.207-0.012,0.383-0.024,0.59 c-0.128,2.813-2.046,4.768-3.769,5.895c-2.612,1.797-5.679,2.113-6.035,2.18c-0.611,0.067-1.227-0.115-1.607-0.463 c-0.387-0.353-0.463-0.822-0.219-1.211c1.099-1.846,0.487-3.021-0.28-4.665c-0.231-0.505-0.475-1.077-0.679-1.692 c-0.064-0.134-0.113-0.274-0.144-0.42l-0.125-0.414l-0.487,0.164c-0.648,0.207-1.327,0.408-1.945,0.469 c-1.939,0.25-3.678,0.134-4.932-0.036c-0.637-0.092-1.136-0.183-1.483-0.269c-0.356-0.098-0.551-0.14-0.563-0.14 c-0.423-0.128-0.779-0.427-0.911-0.804c-0.024-0.055-0.061-0.098-0.073-0.141c-0.113-0.432,0.073-0.852,0.435-1.096 c4.421-3.13,4.509-5.206,4.765-6.936c0.085-0.554,0.143-1.175,0.365-1.803c1.075-3.209,2.752-4.64,4.533-5.225 c1.754-0.725,3.642-0.65,5.063-0.59l0.368,0.018l0.088-4.183l-0.6,0.688c-0.703,0.803-1.571,1.437-2.569,1.905 c-0.996,0.444-2.131,0.779-3.31,0.688c-0.316-0.013-0.636-0.043-0.947-0.092c-0.974-0.14-1.891-0.469-2.695-0.932 c-0.398-0.231-0.779-0.499-1.111-0.804c-0.353-0.329-0.649-0.688-0.904-1.071c-1.047-1.547-1.458-3.435-1.172-5.383 c0.283-1.76,1.172-3.282,2.29-4.348c1.111-1.06,2.439-1.62,3.815-1.693c1.142,0,2.122,0.53,2.932,1.565 c0.792,0.979,1.291,2.216,1.328,3.671c0.036,1.194-0.335,2.363-1.072,3.271c-0.755,0.95-1.79,1.346-2.85,1.34l-0.499-0.134 c-0.387-0.116-0.704-0.348-0.917-0.664c-0.298-0.438-0.393-0.98-0.323-1.528c0.104-0.542,0.371-1.023,0.767-1.364 c0.792-0.676,1.93-0.518,2.518,0.359l0.292,0.438l0.201-0.499c0.143-0.342,0.216-0.688,0.216-1.066 c0-0.919-0.292-1.796-0.804-2.459c-0.499-0.646-1.142-0.987-1.933-0.999c-2,0.097-3.921,1.796-4.284,4.305 c-0.186,1.589,0.219,3.209,1.166,4.306c0.929,1.096,2.362,1.796,3.955,1.832c0.523,0.013,1.001-0.012,1.464-0.091 c0.457-0.128,0.91-0.269,1.315-0.463c0.804-0.39,1.492-0.913,2.059-1.602c1.111-1.364,1.678-3.3,1.76-5.803l0.131-6.638 l0.131-6.966c0.012-0.651,0.359-1.169,0.74-1.132c0.386-0.031,0.718,0.475,0.73,1.132l0.131,6.966l0.118,6.418h0.013v0.043 c0,0.122,0.012,0.219,0.012,0.28c0.089,2.466,0.648,4.378,1.763,5.724c0.566,0.664,1.236,1.193,2.053,1.583 c0.407,0.188,0.864,0.347,1.315,0.457c0.462,0.079,0.962,0.109,1.473,0.091c1.608-0.036,3.039-0.742,3.971-1.832 c0.919-1.121,1.333-2.734,1.145-4.306c-0.354-2.509-2.247-4.22-4.274-4.305c-0.755-0.007-1.419,0.353-1.942,0.999 c-0.512,0.657-0.792,1.521-0.792,2.453c0,0.414,0.092,0.834,0.244,1.188l0.243,0.5l0.341-0.579 c0.591-0.889,1.729-1.041,2.533-0.359c0.384,0.335,0.658,0.822,0.755,1.358c0.098,0.548-0.012,1.09-0.316,1.528 c-0.28,0.407-0.706,0.688-1.229,0.772l-0.171,0.037c-1.169,0.019-2.204-0.354-2.983-1.321c-0.743-0.907-1.114-2.076-1.09-3.271 c0.066-1.442,0.554-2.691,1.346-3.671c0.804-1.035,1.784-1.59,2.935-1.565c1.4,0.079,2.728,0.627,3.812,1.688 c1.114,1.059,2.004,2.588,2.271,4.348c0.305,1.948-0.109,3.842-1.157,5.389c-0.256,0.383-0.56,0.742-0.895,1.077 c-0.354,0.299-0.7,0.566-1.114,0.804c-0.798,0.457-1.693,0.792-2.698,0.932c-0.316,0.043-0.639,0.073-0.943,0.086 c-1.199,0.091-2.356-0.256-3.343-0.707c-0.999-0.463-1.888-1.12-2.569-1.936l-0.612-0.701l0.088,4.123l0.372-0.037 c0.207-0.018,0.365-0.03,0.523-0.042c0.73-0.037,2.168-0.122,3.702,0.578c1.534,0.688,3.179,1.888,4.372,4.816 c0.243,0.609,0.365,1.224,0.475,1.778c0.384,1.711,0.621,3.757,5.298,6.631c0.401,0.219,0.621,0.621,0.548,1.047 C105.456,167.154,105.114,167.568,104.628,167.732z M105.06,131.739c-1.145,0.42-1.888,0.701-1.888,0.701 s-0.183,0.078-0.511,0.194c-0.366,0.085-0.853,0.201-1.426,0.347c-0.608,0.158-1.278,0.342-2.009,0.523 c-0.73,0.238-1.534,0.354-2.339,0.445c-1.607,0.207-3.19,0.59-4.42,0.548c-1.225,0.061-2.034,0.104-2.034,0.104l-0.201-6.954 c-0.036-1.041-0.56-1.851-1.172-1.803c-0.624-0.055-1.147,0.762-1.172,1.803l-0.204,6.954c0,0-0.819-0.043-2.027-0.104 c-1.23,0.042-2.813-0.347-4.421-0.548c-0.386-0.061-0.797-0.116-1.19-0.158c-0.386-0.062-0.749-0.201-1.135-0.287 c-0.731-0.188-1.422-0.365-1.994-0.523c-0.588-0.14-1.087-0.262-1.428-0.347c-0.332-0.128-0.511-0.194-0.511-0.194 s-0.761-0.281-1.903-0.707c-0.56-0.213-1.254-0.408-1.945-0.713c-0.673-0.334-1.41-0.682-2.137-1.047 c-0.712-0.384-1.492-0.633-2.122-1.071c-0.648-0.39-1.251-0.768-1.775-1.084c-0.524-0.317-0.956-0.579-1.261-0.749 c-0.311-0.164-0.463-0.316-0.463-0.316l3.937-5.748c0.59-0.871,0.661-1.87,0.18-2.235c-0.475-0.378-1.41,0.013-2.046,0.828 l-4.271,5.511c0,0-0.149-0.121-0.441-0.335c-0.286-0.2-0.703-0.487-1.142-0.919c-0.447-0.402-0.971-0.896-1.534-1.407 c-0.548-0.523-1.209-0.998-1.708-1.644c-0.548-0.609-1.103-1.206-1.608-1.766c-0.511-0.561-1.011-1.072-1.346-1.584 c-0.725-0.974-1.2-1.632-1.2-1.632s-0.131-0.158-0.347-0.438c-0.189-0.298-0.576-0.651-0.855-1.193 c-0.606-1.071-1.51-2.417-2.274-3.836c-0.648-1.474-1.456-2.893-1.891-4.025c-0.393-1.15-0.679-1.905-0.679-1.905l6.558-2.351 c0.98-0.359,1.61-1.102,1.397-1.662c-0.268-0.555-1.102-0.834-2.125-0.536l-6.68,1.948c0,0-0.192-0.785-0.5-1.954 c-0.131-0.591-0.387-1.249-0.484-2.003c-0.119-0.743-0.226-1.547-0.344-2.352c-0.35-1.589-0.35-3.229-0.393-4.438 c-0.095-1.218-0.131-2.027-0.131-2.027s0.049-0.816,0.131-2.025c0.061-1.23,0.061-2.871,0.393-4.455 c0.131-0.81,0.225-1.601,0.344-2.356c0.119-0.755,0.374-1.422,0.499-2.012c0.292-1.172,0.484-1.946,0.484-1.946l6.68,1.946 c1.035,0.298,1.869,0.024,2.137-0.518c0.213-0.569-0.405-1.309-1.397-1.671l-6.552-2.351c0,0,0.268-0.761,0.673-1.903 c0.417-1.135,1.224-2.542,1.891-4.022c0.752-1.428,1.689-2.761,2.262-3.827c0.28-0.539,0.648-0.898,0.855-1.19 c0.216-0.283,0.347-0.444,0.347-0.444s0.475-0.648,1.2-1.626c0.335-0.518,0.834-1.029,1.358-1.592 c0.512-0.561,1.06-1.166,1.596-1.763c0.511-0.649,1.172-1.124,1.723-1.653c0.566-0.512,1.09-0.993,1.531-1.416 c0.42-0.429,0.874-0.697,1.154-0.916c0.292-0.204,0.444-0.332,0.444-0.332l4.272,5.508c0.648,0.822,1.559,1.196,2.042,0.834 c0.475-0.368,0.387-1.382-0.191-2.238l-3.921-5.754c0,0,0.149-0.131,0.459-0.298c0.305-0.183,0.737-0.445,1.267-0.761 c0.505-0.313,1.124-0.682,1.757-1.081c0.63-0.435,1.41-0.685,2.122-1.065c0.715-0.362,1.446-0.709,2.137-1.047 c0.685-0.292,1.385-0.493,1.946-0.704c1.153-0.432,1.909-0.707,1.909-0.707s0.173-0.079,0.505-0.198 c0.362-0.088,0.847-0.207,1.428-0.35c0.603-0.155,1.279-0.329,2.007-0.523c0.73-0.237,1.534-0.344,2.338-0.444 c1.61-0.21,3.194-0.591,4.421-0.548c1.212-0.061,2.034-0.097,2.034-0.097l0.197,6.95c0.04,1.042,0.563,1.852,1.172,1.803 c0.618,0.055,1.143-0.761,1.173-1.803l0.207-6.95c0,0,0.815,0.036,2.027,0.097c1.23-0.042,2.801,0.344,4.408,0.548 c0.396,0.058,0.811,0.112,1.206,0.164c0.384,0.061,0.749,0.198,1.12,0.286c0.743,0.188,1.425,0.368,2.01,0.518 c0.585,0.143,1.071,0.262,1.425,0.35c0.329,0.131,0.512,0.198,0.512,0.198s0.749,0.28,1.905,0.707 c0.566,0.21,1.236,0.411,1.942,0.709c0.683,0.338,1.407,0.685,2.138,1.047c0.713,0.38,1.492,0.63,2.119,1.072 c0.651,0.393,1.254,0.767,1.778,1.087c0.523,0.311,0.956,0.572,1.248,0.749c0.322,0.167,0.475,0.311,0.475,0.311l-3.921,5.736 c-0.597,0.868-0.664,1.87-0.195,2.238c0.487,0.374,1.419-0.012,2.046-0.828l4.269-5.508c0,0,0.165,0.122,0.444,0.332 c0.299,0.207,0.719,0.487,1.151,0.922c0.45,0.405,0.974,0.892,1.534,1.404c0.548,0.529,1.212,1.004,1.711,1.647 c0.548,0.603,1.103,1.203,1.596,1.769c0.523,0.551,1.022,1.068,1.357,1.586c0.713,0.965,1.2,1.62,1.2,1.62 s0.128,0.161,0.347,0.441c0.188,0.301,0.572,0.654,0.858,1.199c0.591,1.065,1.504,2.405,2.271,3.833 c0.651,1.479,1.455,2.893,1.882,4.028c0.401,1.147,0.688,1.902,0.688,1.902l-6.57,2.351c-0.974,0.362-1.595,1.108-1.382,1.666 c0.256,0.548,1.09,0.828,2.125,0.53l6.674-1.952c0,0,0.195,0.786,0.499,1.958c0.135,0.591,0.39,1.251,0.487,2.007 c0.122,0.749,0.213,1.546,0.348,2.35c0.347,1.592,0.347,3.224,0.39,4.439c0.079,1.218,0.134,2.028,0.134,2.028 s-0.055,0.816-0.134,2.028c-0.062,1.227-0.062,2.868-0.39,4.451c-0.135,0.81-0.226,1.607-0.348,2.356 c-0.115,0.755-0.371,1.425-0.499,2.016c-0.292,1.175-0.499,1.948-0.499,1.948l-6.662-1.948c-1.035-0.305-1.869-0.024-2.137,0.523 c-0.214,0.561,0.39,1.303,1.394,1.662l6.553,2.356c0,0-0.28,0.755-0.67,1.9c-0.433,1.139-1.225,2.545-1.894,4.024 c-0.768,1.432-1.688,2.771-2.26,3.83c-0.286,0.536-0.651,0.901-0.858,1.188c-0.219,0.28-0.347,0.438-0.347,0.438 s-0.487,0.651-1.2,1.632c-0.347,0.523-0.834,1.029-1.357,1.583c-0.512,0.566-1.06,1.169-1.596,1.772 c-0.512,0.646-1.188,1.12-1.723,1.65c-0.561,0.511-1.084,0.992-1.535,1.418c-0.426,0.433-0.87,0.701-1.15,0.914 c-0.292,0.207-0.444,0.334-0.444,0.334l-4.269-5.504c-0.651-0.828-1.571-1.199-2.046-0.84c-0.487,0.377-0.396,1.388,0.183,2.234 l3.934,5.754c0,0-0.152,0.134-0.476,0.311c-0.292,0.171-0.725,0.433-1.248,0.749c-0.512,0.316-1.126,0.683-1.766,1.084 c-0.627,0.433-1.406,0.688-2.119,1.065c-0.73,0.365-1.443,0.713-2.138,1.047C106.32,131.313,105.639,131.509,105.06,131.739z M147.873,143.51c-0.128,0.237-0.719,1.127-1.767,2.253c-1.363,1.31-2.989,2.405-4.651,3.185l-0.536,0.256l0.298,0.384 c0.128,0.158,0.214,0.335,0.342,0.493c0.779,1.182,1.096,2.472,1.107,3.714c0,1.2-0.316,2.339-0.676,3.283 c-1.163,2.861-3.312,5.133-3.568,5.352c-0.462,0.402-1.071,0.621-1.595,0.549c-0.523-0.067-0.871-0.396-0.914-0.859 c-0.151-2.131-1.388-2.734-2.978-3.623c-0.48-0.273-1.028-0.608-1.577-0.98c-0.127-0.098-0.255-0.158-0.383-0.262l-0.342-0.273 l-0.304,0.408c-0.414,0.565-0.858,1.059-1.304,1.527c-1.327,1.462-2.874,2.303-4,2.887c-0.572,0.292-1.035,0.499-1.389,0.633 c-0.329,0.129-0.523,0.201-0.536,0.201c-0.426,0.135-0.907,0.098-1.205-0.098c-0.062-0.03-0.109-0.049-0.128-0.085 c-0.348-0.28-0.438-0.7-0.292-1.157c1.76-5.103,0.621-6.801-0.195-8.366c-0.268-0.487-0.585-1.047-0.779-1.675 c-1.942-6.32,1.954-8.713,4.372-10.314l0.28-0.213l-2.405-3.422l-0.062,0.938c-0.151,2.155-1.363,4.024-3.245,5.541 c-0.243,0.188-0.499,0.383-0.804,0.518c-1.778,0.858-3.77,0.98-5.48,0.438c-1.705-0.579-3.221-1.948-4.092-3.679 c-0.815-1.601-0.986-3.349-0.682-4.84c0.304-1.443,0.925-2.905,2.082-3.654c0.926-0.627,2.083-0.719,3.252-0.469 c1.188,0.299,2.375,1.078,3.245,2.211c0.725,0.943,1.127,2.094,1.035,3.245c-0.091,1.145-0.615,2.223-1.467,2.838l-0.494,0.164 c-0.377,0.128-0.779,0.122-1.156-0.036c-0.5-0.189-0.907-0.566-1.163-1.066c-0.244-0.492-0.311-1.041-0.183-1.54 c0.243-0.993,1.303-1.449,2.253-1.182l0.463,0.146l-0.128-0.536c-0.086-0.365-0.244-0.693-0.457-0.992 c-0.536-0.743-1.267-1.248-2.046-1.432c-0.768-0.188-1.485-0.151-2.174,0.281c-1.632,1.113-2.058,3.891-0.896,6.052 c0.78,1.438,2.004,2.369,3.429,2.734c1.406,0.347,2.996,0.158,4.287-0.761c1.638-1.304,2.539-2.862,2.654-4.58 c0.141-1.692-0.627-3.714-1.985-5.754l-3.806-5.449l-4-5.706c-0.378-0.536-0.42-1.169-0.122-1.419 c0.305-0.225,0.889,0,1.279,0.523l4.201,5.561l3.873,5.12l0.012-0.006l0.024,0.03c0.085,0.092,0.134,0.177,0.164,0.231 c1.522,1.931,3.118,3.173,4.835,3.636c1.741,0.518,3.41-0.006,5.127-1.176c0.651-0.469,1.218-1.004,1.547-1.687 c0.341-0.682,0.512-1.425,0.548-2.161c0.085-1.468-0.463-2.953-1.571-4.117c-1.704-1.796-4.444-2.204-5.967-0.938 c-0.548,0.506-0.95,1.084-0.986,1.912c-0.062,0.816,0.194,1.687,0.749,2.418c0.237,0.347,0.554,0.627,0.907,0.828l0.499,0.268 l-0.049-0.658c-0.036-1.041,0.896-1.741,1.888-1.717c0.499,0.037,0.999,0.244,1.395,0.64c0.396,0.39,0.651,0.896,0.664,1.431 c0.055,0.529-0.141,0.999-0.549,1.352l-0.134,0.135c-0.962,0.676-2.106,0.906-3.245,0.645c-1.108-0.256-2.083-0.968-2.746-1.954 c-0.816-1.193-1.193-2.563-1.151-3.812c0.037-0.646,0.183-1.193,0.451-1.688c0.256-0.469,0.633-0.87,1.047-1.235 c1.06-0.884,2.533-1.139,4.092-0.907c1.583,0.256,3.13,0.907,4.421,2.186c1.431,1.432,2.168,3.179,2.18,4.999 c0.013,0.907-0.152,1.827-0.499,2.71c-0.329,0.895-0.84,1.723-1.596,2.362c-0.231,0.207-0.486,0.402-0.755,0.603 c-0.986,0.701-2.033,1.188-3.081,1.449c-1.047,0.256-2.204,0.159-3.251-0.097l-0.908-0.231l2.467,3.288l0.298-0.237 c0.141-0.128,0.293-0.22,0.396-0.329c0.292-0.213,0.73-0.548,1.303-0.853c0.561-0.328,1.206-0.694,2.01-0.901 c1.583-0.396,3.727-0.28,6.43,1.401c0.561,0.347,1.023,0.779,1.425,1.15c0.658,0.609,1.352,1.254,2.558,1.729 c1.175,0.444,2.85,0.712,5.541,0.433c0.463-0.049,0.896,0.146,1.071,0.535C148.195,142.548,148.146,143.065,147.873,143.51z M168.503,101.373c-0.311,1.882-0.811,3.763-1.814,5.328l-0.311,0.523l0.463,0.134c0.194,0.067,0.383,0.135,0.56,0.207 c2.649,0.986,3.922,3.429,4.476,5.432c0.457,1.522,0.481,3.039,0.42,4.227c-0.072,1.181-0.219,2.039-0.243,2.203 c-0.128,0.615-0.487,1.151-0.92,1.407c-0.462,0.262-0.925,0.188-1.229-0.152c-1.413-1.638-2.734-1.406-4.506-1.175 c-0.566,0.072-1.182,0.127-1.827,0.134c-0.158,0-0.298,0.012-0.45,0.006l-0.427-0.019l0.013,0.53 c-0.037,0.67-0.128,1.327-0.244,1.96c-0.328,1.925-0.943,3.557-1.491,4.707c-0.269,0.579-0.512,1.029-0.719,1.322 c-0.207,0.285-0.341,0.456-0.359,0.463c-0.28,0.365-0.676,0.584-1.071,0.627c-0.062,0-0.11,0.012-0.141,0.006 c-0.45-0.03-0.779-0.316-0.913-0.749c-0.664-2.546-1.62-4.024-2.503-4.95c-0.883-0.932-1.729-1.322-2.533-1.699 c-0.511-0.231-1.084-0.499-1.607-0.901c-2.733-2.016-3.58-4.079-3.617-5.942c-0.012-0.469,0.037-0.914,0.098-1.364 c0.062-0.457,0.134-0.913,0.22-1.334c0.194-0.853,0.475-1.632,0.718-2.308l0.128-0.328l-3.97-1.377l0.487,0.785 c1.096,1.821,1.474,4.141,0.646,6.376c-0.109,0.305-0.213,0.597-0.365,0.889c-0.427,0.901-1.011,1.675-1.693,2.296 c-0.736,0.578-1.583,1.011-2.466,1.279c-1.748,0.529-3.666,0.353-5.419-0.536c-1.596-0.816-2.771-2.149-3.459-3.544 c-0.706-1.425-0.804-2.826-0.39-4.153c0.335-1.077,1.126-1.869,2.326-2.302c0.603-0.219,1.248-0.347,1.948-0.359 c0.657-0.023,1.34,0.055,2.021,0.25c1.145,0.341,2.18,1.06,2.746,2.04c0.591,0.962,0.707,2.106,0.39,3.1l-0.286,0.444 c-0.194,0.322-0.535,0.566-0.907,0.67c-0.499,0.14-1.035,0.091-1.516-0.164c-0.487-0.256-0.884-0.664-1.078-1.164 c-0.408-0.962,0.067-2.009,1.078-2.301l0.493-0.146l-0.39-0.359c-0.299-0.25-0.615-0.42-0.956-0.542 c-0.89-0.286-1.778-0.274-2.558,0.013c-0.755,0.285-1.261,0.785-1.504,1.54c-0.244,0.993-0.231,1.979,0.28,2.978 c0.469,0.969,1.327,1.875,2.472,2.411c1.449,0.688,3.051,0.749,4.457,0.237c1.425-0.48,2.43-1.692,2.966-3.178 c0.322-0.993,0.499-1.912,0.39-2.801c-0.134-0.896-0.42-1.712-0.913-2.461c-0.956-1.479-2.643-2.624-5-3.477l-6.283-2.18 l-6.576-2.277c-0.634-0.207-1.012-0.682-0.877-1.048c0.152-0.358,0.736-0.505,1.37-0.322l6.655,2.021l6.132,1.876l0.006,0.006 l0.036,0.012c0.116,0.03,0.207,0.067,0.269,0.086c2.362,0.669,4.348,0.725,5.967,0.078c0.804-0.316,1.511-0.81,2.119-1.467 c0.579-0.652,1.169-1.474,1.407-2.473c0.438-1.547,0.194-3.123-0.573-4.348c-0.712-1.211-2.149-2.101-3.72-2.405 c-1.225-0.231-2.442,0-3.374,0.506c-0.943,0.505-1.76,1.267-2.058,2.229c-0.226,0.719-0.086,1.449,0.39,2.149 c0.469,0.7,1.212,1.236,2.052,1.51c0.402,0.128,0.828,0.171,1.23,0.128l0.56-0.073l-0.438-0.511 c-0.651-0.835-0.469-1.967,0.402-2.515c0.438-0.274,0.975-0.384,1.522-0.311c0.548,0.072,1.035,0.347,1.363,0.767 c0.323,0.39,0.451,0.896,0.384,1.419l-0.012,0.177c-0.158,0.566-0.414,1.071-0.768,1.474c-0.39,0.396-0.907,0.719-1.431,0.932 c-1.108,0.438-2.302,0.426-3.446,0.036c-1.353-0.487-2.448-1.357-3.057-2.405c-0.701-1.06-0.975-2.18-0.621-3.245 c0.2-0.657,0.597-1.249,1.107-1.778c0.451-0.529,1.011-0.98,1.693-1.361c1.34-0.731,3.062-1.118,4.828-0.843 c1.949,0.326,3.617,1.306,4.805,2.782c1.12,1.443,1.51,3.361,1.224,5.328c-0.049,0.311-0.128,0.627-0.2,0.932 c-0.756,2.302-2.394,3.995-4.324,4.816l-0.852,0.354l3.945,1.199l0.073-0.371c0.049-0.188,0.091-0.354,0.134-0.518 c0.371-1.431,1.474-5.504,7.617-6.021c0.652-0.049,1.279,0.018,1.827,0.097c1.766,0.152,3.77,0.554,7.928-3.014 c0.359-0.311,0.816-0.39,1.169-0.183c0.391,0.183,0.628,0.645,0.652,1.169C168.704,98.804,168.728,99.851,168.503,101.373z M167.285,70.026c-0.128,0.091-0.231,0.179-0.372,0.268l-0.365,0.237l0.316,0.423c0.402,0.566,0.756,1.142,1.072,1.702 c0.847,1.76,1.242,3.468,1.449,4.701c0.109,0.63,0.146,1.142,0.183,1.504c0.024,0.359,0.036,0.561,0.036,0.572 c0,0.457-0.158,0.874-0.45,1.13c-0.049,0.03-0.073,0.073-0.122,0.101c-0.384,0.237-0.822,0.197-1.181-0.083 c-4.348-3.249-6.321-2.694-8.074-2.408c-0.549,0.113-1.17,0.225-1.815,0.225c-3.397-0.03-5.212-1.221-6.362-2.691 c-1.236-1.461-1.712-3.282-2.083-4.676l-0.104-0.338l-4,1.214l0.828,0.356c1.918,0.85,3.52,2.512,4.28,4.795 c0.098,0.298,0.152,0.618,0.207,0.928c0.268,1.964-0.116,3.873-1.23,5.325c-1.169,1.471-2.85,2.457-4.804,2.773 c-1.76,0.283-3.489-0.112-4.816-0.846c-0.67-0.369-1.23-0.825-1.688-1.355c-0.511-0.523-0.913-1.12-1.107-1.775 c-0.354-1.075-0.11-2.195,0.608-3.249c0.64-1.047,1.718-1.915,3.069-2.396c1.139-0.399,2.338-0.411,3.434,0.021 c0.555,0.217,1.035,0.536,1.432,0.914c0.359,0.396,0.615,0.868,0.749,1.374l0.012,0.523c0.019,0.387-0.115,0.773-0.371,1.093 c-0.329,0.411-0.804,0.679-1.364,0.758c-0.536,0.082-1.084-0.037-1.522-0.311c-0.883-0.542-1.06-1.684-0.396-2.506l0.341-0.42 l-0.554-0.042c-0.39-0.031-0.749,0.012-1.114,0.131c-0.858,0.273-1.583,0.815-2.059,1.51c-0.45,0.679-0.615,1.382-0.384,2.149 c0.28,0.956,1.121,1.721,2.059,2.232c0.919,0.505,2.144,0.737,3.373,0.5c1.583-0.299,2.99-1.19,3.727-2.424 c0.755-1.224,0.999-2.795,0.572-4.311c-0.243-1.001-0.828-1.815-1.412-2.475c-0.64-0.648-1.328-1.154-2.144-1.465 c-1.638-0.648-3.642-0.578-6.047,0.106l-6.363,1.939l-6.655,2.022c-0.627,0.186-1.181,0.03-1.37-0.332 c-0.14-0.356,0.256-0.831,0.883-1.042l6.589-2.271l6.083-2.101l-0.012-0.012l0.036-0.012c0.122-0.037,0.219-0.076,0.268-0.094 c2.314-0.841,3.982-1.976,4.92-3.453c0.47-0.743,0.78-1.565,0.914-2.463c0.104-0.892-0.098-1.809-0.396-2.801 c-0.535-1.513-1.534-2.719-2.978-3.197c-1.425-0.5-2.989-0.432-4.457,0.252c-1.145,0.539-1.973,1.431-2.46,2.408 c-0.512,0.987-0.523,1.977-0.286,2.969c0.22,0.73,0.743,1.254,1.51,1.547c0.78,0.286,1.688,0.298,2.558,0.012 c0.384-0.131,0.755-0.338,1.06-0.618l0.39-0.374l-0.646-0.155c-0.998-0.292-1.474-1.34-1.071-2.32 c0.177-0.478,0.572-0.892,1.06-1.153c0.499-0.256,1.035-0.323,1.534-0.168c0.457,0.137,0.877,0.469,1.096,0.947l0.11,0.146 c0.371,1.126,0.268,2.256-0.341,3.246c-0.585,0.974-1.62,1.699-2.74,2.034c-0.688,0.195-1.364,0.274-2.028,0.25 c-0.682-0.012-1.346-0.131-1.942-0.356c-1.199-0.435-2.021-1.215-2.326-2.311c-0.42-1.318-0.341-2.734,0.384-4.146 c0.676-1.404,1.863-2.731,3.446-3.538c1.754-0.889,3.666-1.065,5.432-0.542c0.89,0.268,1.724,0.694,2.467,1.279 c0.669,0.63,1.254,1.404,1.692,2.295c0.128,0.274,0.256,0.572,0.359,0.883c0.87,2.26,0.444,4.61-0.646,6.437l-0.499,0.792 l3.896-1.346l-0.14-0.351c-0.079-0.18-0.128-0.332-0.189-0.487c-0.255-0.667-0.712-2.049-0.578-3.708 c0.067-1.623,0.816-3.599,3.239-5.65c0.5-0.417,1.048-0.728,1.535-1.002c0.767-0.438,1.595-0.892,2.423-1.896 c0.804-0.987,1.693-2.564,2.204-5.176c0.092-0.448,0.39-0.773,0.835-0.841c0.401-0.063,0.907,0.137,1.248,0.53 c0.104,0.112,0.322,0.368,0.615,0.752c0.256,0.414,0.584,0.974,0.907,1.665c0.846,1.708,1.431,3.587,1.692,5.383 c0,0,0.098,0.591,0.073,0.597l0.45-0.167c0.183-0.067,0.384-0.107,0.572-0.149c2.734-0.749,5.14,0.487,6.735,1.802 c1.199,0.983,2.21,2.171,2.91,3.142c0.627,0.999,0.975,1.784,1.06,1.939c0.256,0.566,0.268,1.208,0.055,1.689 c-0.219,0.481-0.651,0.697-1.102,0.594c-2.083-0.487-3.015,0.46-4.342,1.687C168.283,69.222,167.809,69.633,167.285,70.026z"/> </g> </g> </g>
</svg>